<?xml version="1.0" encoding="UTF-8" standalone="no"?>
<!DOCTYPE svg PUBLIC "-//W3C//DTD SVG 1.1//EN"
 "http://www.w3.org/Graphics/SVG/1.1/DTD/svg11.dtd">
<!-- Generated by graphviz version 2.40.1 (20161225.0304)
 -->
<!-- Title: Tree Pages: 1 -->
<svg width="1001pt" height="723pt"
 viewBox="0.00 0.00 1001.43 723.20" xmlns="http://www.w3.org/2000/svg" xmlns:xlink="http://www.w3.org/1999/xlink">
<g id="graph0" class="graph" transform="scale(1 1) rotate(0) translate(4 719.2)">
<title>Tree</title>
<polygon fill="#ffffff" stroke="transparent" points="-4,4 -4,-719.2 997.4291,-719.2 997.4291,4 -4,4"/>
<!-- 0 -->
<g id="node1" class="node">
<title>0</title>
<path fill="#aad5f4" stroke="#000000" d="M420.3719,-715.2C420.3719,-715.2 332.1659,-715.2 332.1659,-715.2 326.1659,-715.2 320.1659,-709.2 320.1659,-703.2 320.1659,-703.2 320.1659,-635.2 320.1659,-635.2 320.1659,-629.2 326.1659,-623.2 332.1659,-623.2 332.1659,-623.2 420.3719,-623.2 420.3719,-623.2 426.3719,-623.2 432.3719,-629.2 432.3719,-635.2 432.3719,-635.2 432.3719,-703.2 432.3719,-703.2 432.3719,-709.2 426.3719,-715.2 420.3719,-715.2"/>
<text text-anchor="middle" x="376.2689" y="-698.6" font-family="Helvetica,sans-Serif" font-size="14.00" fill="#000000">Sex &lt;= 0.5</text>
<text text-anchor="middle" x="376.2689" y="-681.8" font-family="Helvetica,sans-Serif" font-size="14.00" fill="#000000">gini = 0.462</text>
<text text-anchor="middle" x="376.2689" y="-665" font-family="Helvetica,sans-Serif" font-size="14.00" fill="#000000">samples = 146</text>
<text text-anchor="middle" x="376.2689" y="-648.2" font-family="Helvetica,sans-Serif" font-size="14.00" fill="#000000">value = [53, 93]</text>
<text text-anchor="middle" x="376.2689" y="-631.4" font-family="Helvetica,sans-Serif" font-size="14.00" fill="#000000">class = True</text>
</g>
<!-- 1 -->
<g id="node2" class="node">
<title>1</title>
<path fill="#4ca6e7" stroke="#000000" d="M354.9817,-587.2C354.9817,-587.2 267.5561,-587.2 267.5561,-587.2 261.5561,-587.2 255.5561,-581.2 255.5561,-575.2 255.5561,-575.2 255.5561,-507.2 255.5561,-507.2 255.5561,-501.2 261.5561,-495.2 267.5561,-495.2 267.5561,-495.2 354.9817,-495.2 354.9817,-495.2 360.9817,-495.2 366.9817,-501.2 366.9817,-507.2 366.9817,-507.2 366.9817,-575.2 366.9817,-575.2 366.9817,-581.2 360.9817,-587.2 354.9817,-587.2"/>
<text text-anchor="middle" x="311.2689" y="-570.6" font-family="Helvetica,sans-Serif" font-size="14.00" fill="#000000">Fare &lt;= 11.488</text>
<text text-anchor="middle" x="311.2689" y="-553.8" font-family="Helvetica,sans-Serif" font-size="14.00" fill="#000000">gini = 0.157</text>
<text text-anchor="middle" x="311.2689" y="-537" font-family="Helvetica,sans-Serif" font-size="14.00" fill="#000000">samples = 70</text>
<text text-anchor="middle" x="311.2689" y="-520.2" font-family="Helvetica,sans-Serif" font-size="14.00" fill="#000000">value = [6, 64]</text>
<text text-anchor="middle" x="311.2689" y="-503.4" font-family="Helvetica,sans-Serif" font-size="14.00" fill="#000000">class = True</text>
</g>
<!-- 0&#45;&gt;1 -->
<g id="edge1" class="edge">
<title>0&#45;&gt;1</title>
<path fill="none" stroke="#000000" d="M352.8024,-622.9891C348.4302,-614.3791 343.821,-605.3026 339.3273,-596.4535"/>
<polygon fill="#000000" stroke="#000000" points="342.3495,-594.6746 334.7009,-587.3431 336.1081,-597.8441 342.3495,-594.6746"/>
<text text-anchor="middle" x="326.9432" y="-606.909" font-family="Helvetica,sans-Serif" font-size="14.00" fill="#000000">True</text>
</g>
<!-- 10 -->
<g id="node11" class="node">
<title>10</title>
<path fill="#f5cfb3" stroke="#000000" d="M496.3719,-587.2C496.3719,-587.2 408.1659,-587.2 408.1659,-587.2 402.1659,-587.2 396.1659,-581.2 396.1659,-575.2 396.1659,-575.2 396.1659,-507.2 396.1659,-507.2 396.1659,-501.2 402.1659,-495.2 408.1659,-495.2 408.1659,-495.2 496.3719,-495.2 496.3719,-495.2 502.3719,-495.2 508.3719,-501.2 508.3719,-507.2 508.3719,-507.2 508.3719,-575.2 508.3719,-575.2 508.3719,-581.2 502.3719,-587.2 496.3719,-587.2"/>
<text text-anchor="middle" x="452.2689" y="-570.6" font-family="Helvetica,sans-Serif" font-size="14.00" fill="#000000">Age &lt;= 17.5</text>
<text text-anchor="middle" x="452.2689" y="-553.8" font-family="Helvetica,sans-Serif" font-size="14.00" fill="#000000">gini = 0.472</text>
<text text-anchor="middle" x="452.2689" y="-537" font-family="Helvetica,sans-Serif" font-size="14.00" fill="#000000">samples = 76</text>
<text text-anchor="middle" x="452.2689" y="-520.2" font-family="Helvetica,sans-Serif" font-size="14.00" fill="#000000">value = [47, 29]</text>
<text text-anchor="middle" x="452.2689" y="-503.4" font-family="Helvetica,sans-Serif" font-size="14.00" fill="#000000">class = False</text>
</g>
<!-- 0&#45;&gt;10 -->
<g id="edge10" class="edge">
<title>0&#45;&gt;10</title>
<path fill="none" stroke="#000000" d="M403.7066,-622.9891C408.8726,-614.2885 414.3215,-605.1115 419.628,-596.1741"/>
<polygon fill="#000000" stroke="#000000" points="422.7755,-597.7286 424.8714,-587.3431 416.7565,-594.1548 422.7755,-597.7286"/>
<text text-anchor="middle" x="431.0465" y="-607.3685" font-family="Helvetica,sans-Serif" font-size="14.00" fill="#000000">False</text>
</g>
<!-- 2 -->
<g id="node3" class="node">
<title>2</title>
<path fill="#ffffff" stroke="#000000" d="M229.3383,-450.9003C229.3383,-450.9003 155.1995,-450.9003 155.1995,-450.9003 149.1995,-450.9003 143.1995,-444.9003 143.1995,-438.9003 143.1995,-438.9003 143.1995,-387.4997 143.1995,-387.4997 143.1995,-381.4997 149.1995,-375.4997 155.1995,-375.4997 155.1995,-375.4997 229.3383,-375.4997 229.3383,-375.4997 235.3383,-375.4997 241.3383,-381.4997 241.3383,-387.4997 241.3383,-387.4997 241.3383,-438.9003 241.3383,-438.9003 241.3383,-444.9003 235.3383,-450.9003 229.3383,-450.9003"/>
<text text-anchor="middle" x="192.2689" y="-434.2" font-family="Helvetica,sans-Serif" font-size="14.00" fill="#000000">gini = 0.5</text>
<text text-anchor="middle" x="192.2689" y="-417.4" font-family="Helvetica,sans-Serif" font-size="14.00" fill="#000000">samples = 6</text>
<text text-anchor="middle" x="192.2689" y="-400.6" font-family="Helvetica,sans-Serif" font-size="14.00" fill="#000000">value = [3, 3]</text>
<text text-anchor="middle" x="192.2689" y="-383.8" font-family="Helvetica,sans-Serif" font-size="14.00" fill="#000000">class = False</text>
</g>
<!-- 1&#45;&gt;2 -->
<g id="edge2" class="edge">
<title>1&#45;&gt;2</title>
<path fill="none" stroke="#000000" d="M268.3072,-494.9891C257.2756,-483.1231 245.4201,-470.371 234.4294,-458.5492"/>
<polygon fill="#000000" stroke="#000000" points="236.7216,-455.8743 227.3493,-450.9335 231.5948,-460.6405 236.7216,-455.8743"/>
</g>
<!-- 3 -->
<g id="node4" class="node">
<title>3</title>
<path fill="#43a2e6" stroke="#000000" d="M351.5898,-459.2C351.5898,-459.2 270.948,-459.2 270.948,-459.2 264.948,-459.2 258.948,-453.2 258.948,-447.2 258.948,-447.2 258.948,-379.2 258.948,-379.2 258.948,-373.2 264.948,-367.2 270.948,-367.2 270.948,-367.2 351.5898,-367.2 351.5898,-367.2 357.5898,-367.2 363.5898,-373.2 363.5898,-379.2 363.5898,-379.2 363.5898,-447.2 363.5898,-447.2 363.5898,-453.2 357.5898,-459.2 351.5898,-459.2"/>
<text text-anchor="middle" x="311.2689" y="-442.6" font-family="Helvetica,sans-Serif" font-size="14.00" fill="#000000">Parch &lt;= 1.5</text>
<text text-anchor="middle" x="311.2689" y="-425.8" font-family="Helvetica,sans-Serif" font-size="14.00" fill="#000000">gini = 0.089</text>
<text text-anchor="middle" x="311.2689" y="-409" font-family="Helvetica,sans-Serif" font-size="14.00" fill="#000000">samples = 64</text>
<text text-anchor="middle" x="311.2689" y="-392.2" font-family="Helvetica,sans-Serif" font-size="14.00" fill="#000000">value = [3, 61]</text>
<text text-anchor="middle" x="311.2689" y="-375.4" font-family="Helvetica,sans-Serif" font-size="14.00" fill="#000000">class = True</text>
</g>
<!-- 1&#45;&gt;3 -->
<g id="edge3" class="edge">
<title>1&#45;&gt;3</title>
<path fill="none" stroke="#000000" d="M311.2689,-494.9891C311.2689,-486.7417 311.2689,-478.0661 311.2689,-469.5724"/>
<polygon fill="#000000" stroke="#000000" points="314.769,-469.3431 311.2689,-459.3431 307.769,-469.3431 314.769,-469.3431"/>
</g>
<!-- 4 -->
<g id="node5" class="node">
<title>4</title>
<path fill="#3d9fe5" stroke="#000000" d="M209.9817,-331.2C209.9817,-331.2 122.5561,-331.2 122.5561,-331.2 116.5561,-331.2 110.5561,-325.2 110.5561,-319.2 110.5561,-319.2 110.5561,-251.2 110.5561,-251.2 110.5561,-245.2 116.5561,-239.2 122.5561,-239.2 122.5561,-239.2 209.9817,-239.2 209.9817,-239.2 215.9817,-239.2 221.9817,-245.2 221.9817,-251.2 221.9817,-251.2 221.9817,-319.2 221.9817,-319.2 221.9817,-325.2 215.9817,-331.2 209.9817,-331.2"/>
<text text-anchor="middle" x="166.2689" y="-314.6" font-family="Helvetica,sans-Serif" font-size="14.00" fill="#000000">Fare &lt;= 29.356</text>
<text text-anchor="middle" x="166.2689" y="-297.8" font-family="Helvetica,sans-Serif" font-size="14.00" fill="#000000">gini = 0.036</text>
<text text-anchor="middle" x="166.2689" y="-281" font-family="Helvetica,sans-Serif" font-size="14.00" fill="#000000">samples = 54</text>
<text text-anchor="middle" x="166.2689" y="-264.2" font-family="Helvetica,sans-Serif" font-size="14.00" fill="#000000">value = [1, 53]</text>
<text text-anchor="middle" x="166.2689" y="-247.4" font-family="Helvetica,sans-Serif" font-size="14.00" fill="#000000">class = True</text>
</g>
<!-- 3&#45;&gt;4 -->
<g id="edge4" class="edge">
<title>3&#45;&gt;4</title>
<path fill="none" stroke="#000000" d="M258.9206,-366.9891C248.3458,-357.6541 237.1497,-347.7706 226.3342,-338.2231"/>
<polygon fill="#000000" stroke="#000000" points="228.3536,-335.3372 218.5404,-331.3431 223.721,-340.585 228.3536,-335.3372"/>
</g>
<!-- 7 -->
<g id="node8" class="node">
<title>7</title>
<path fill="#6ab6ec" stroke="#000000" d="M359.2649,-331.2C359.2649,-331.2 263.2729,-331.2 263.2729,-331.2 257.2729,-331.2 251.2729,-325.2 251.2729,-319.2 251.2729,-319.2 251.2729,-251.2 251.2729,-251.2 251.2729,-245.2 257.2729,-239.2 263.2729,-239.2 263.2729,-239.2 359.2649,-239.2 359.2649,-239.2 365.2649,-239.2 371.2649,-245.2 371.2649,-251.2 371.2649,-251.2 371.2649,-319.2 371.2649,-319.2 371.2649,-325.2 365.2649,-331.2 359.2649,-331.2"/>
<text text-anchor="middle" x="311.2689" y="-314.6" font-family="Helvetica,sans-Serif" font-size="14.00" fill="#000000">Fare &lt;= 158.208</text>
<text text-anchor="middle" x="311.2689" y="-297.8" font-family="Helvetica,sans-Serif" font-size="14.00" fill="#000000">gini = 0.32</text>
<text text-anchor="middle" x="311.2689" y="-281" font-family="Helvetica,sans-Serif" font-size="14.00" fill="#000000">samples = 10</text>
<text text-anchor="middle" x="311.2689" y="-264.2" font-family="Helvetica,sans-Serif" font-size="14.00" fill="#000000">value = [2, 8]</text>
<text text-anchor="middle" x="311.2689" y="-247.4" font-family="Helvetica,sans-Serif" font-size="14.00" fill="#000000">class = True</text>
</g>
<!-- 3&#45;&gt;7 -->
<g id="edge7" class="edge">
<title>3&#45;&gt;7</title>
<path fill="none" stroke="#000000" d="M311.2689,-366.9891C311.2689,-358.7417 311.2689,-350.0661 311.2689,-341.5724"/>
<polygon fill="#000000" stroke="#000000" points="314.769,-341.3431 311.2689,-331.3431 307.769,-341.3431 314.769,-341.3431"/>
</g>
<!-- 5 -->
<g id="node6" class="node">
<title>5</title>
<path fill="#55abe9" stroke="#000000" d="M84.3078,-194.9003C84.3078,-194.9003 12.23,-194.9003 12.23,-194.9003 6.23,-194.9003 .23,-188.9003 .23,-182.9003 .23,-182.9003 .23,-131.4997 .23,-131.4997 .23,-125.4997 6.23,-119.4997 12.23,-119.4997 12.23,-119.4997 84.3078,-119.4997 84.3078,-119.4997 90.3078,-119.4997 96.3078,-125.4997 96.3078,-131.4997 96.3078,-131.4997 96.3078,-182.9003 96.3078,-182.9003 96.3078,-188.9003 90.3078,-194.9003 84.3078,-194.9003"/>
<text text-anchor="middle" x="48.2689" y="-178.2" font-family="Helvetica,sans-Serif" font-size="14.00" fill="#000000">gini = 0.219</text>
<text text-anchor="middle" x="48.2689" y="-161.4" font-family="Helvetica,sans-Serif" font-size="14.00" fill="#000000">samples = 8</text>
<text text-anchor="middle" x="48.2689" y="-144.6" font-family="Helvetica,sans-Serif" font-size="14.00" fill="#000000">value = [1, 7]</text>
<text text-anchor="middle" x="48.2689" y="-127.8" font-family="Helvetica,sans-Serif" font-size="14.00" fill="#000000">class = True</text>
</g>
<!-- 4&#45;&gt;5 -->
<g id="edge5" class="edge">
<title>4&#45;&gt;5</title>
<path fill="none" stroke="#000000" d="M123.6682,-238.9891C112.7293,-227.1231 100.9734,-214.371 90.0751,-202.5492"/>
<polygon fill="#000000" stroke="#000000" points="92.4059,-199.9136 83.0545,-194.9335 87.2592,-204.6583 92.4059,-199.9136"/>
</g>
<!-- 6 -->
<g id="node7" class="node">
<title>6</title>
<path fill="#399de5" stroke="#000000" d="M206.5898,-194.9003C206.5898,-194.9003 125.948,-194.9003 125.948,-194.9003 119.948,-194.9003 113.948,-188.9003 113.948,-182.9003 113.948,-182.9003 113.948,-131.4997 113.948,-131.4997 113.948,-125.4997 119.948,-119.4997 125.948,-119.4997 125.948,-119.4997 206.5898,-119.4997 206.5898,-119.4997 212.5898,-119.4997 218.5898,-125.4997 218.5898,-131.4997 218.5898,-131.4997 218.5898,-182.9003 218.5898,-182.9003 218.5898,-188.9003 212.5898,-194.9003 206.5898,-194.9003"/>
<text text-anchor="middle" x="166.2689" y="-178.2" font-family="Helvetica,sans-Serif" font-size="14.00" fill="#000000">gini = 0.0</text>
<text text-anchor="middle" x="166.2689" y="-161.4" font-family="Helvetica,sans-Serif" font-size="14.00" fill="#000000">samples = 46</text>
<text text-anchor="middle" x="166.2689" y="-144.6" font-family="Helvetica,sans-Serif" font-size="14.00" fill="#000000">value = [0, 46]</text>
<text text-anchor="middle" x="166.2689" y="-127.8" font-family="Helvetica,sans-Serif" font-size="14.00" fill="#000000">class = True</text>
</g>
<!-- 4&#45;&gt;6 -->
<g id="edge6" class="edge">
<title>4&#45;&gt;6</title>
<path fill="none" stroke="#000000" d="M166.2689,-238.9891C166.2689,-228.0272 166.2689,-216.309 166.2689,-205.2667"/>
<polygon fill="#000000" stroke="#000000" points="169.769,-204.9335 166.2689,-194.9335 162.769,-204.9335 169.769,-204.9335"/>
</g>
<!-- 8 -->
<g id="node9" class="node">
<title>8</title>
<path fill="#bddef6" stroke="#000000" d="M320.3078,-194.9003C320.3078,-194.9003 248.23,-194.9003 248.23,-194.9003 242.23,-194.9003 236.23,-188.9003 236.23,-182.9003 236.23,-182.9003 236.23,-131.4997 236.23,-131.4997 236.23,-125.4997 242.23,-119.4997 248.23,-119.4997 248.23,-119.4997 320.3078,-119.4997 320.3078,-119.4997 326.3078,-119.4997 332.3078,-125.4997 332.3078,-131.4997 332.3078,-131.4997 332.3078,-182.9003 332.3078,-182.9003 332.3078,-188.9003 326.3078,-194.9003 320.3078,-194.9003"/>
<text text-anchor="middle" x="284.2689" y="-178.2" font-family="Helvetica,sans-Serif" font-size="14.00" fill="#000000">gini = 0.48</text>
<text text-anchor="middle" x="284.2689" y="-161.4" font-family="Helvetica,sans-Serif" font-size="14.00" fill="#000000">samples = 5</text>
<text text-anchor="middle" x="284.2689" y="-144.6" font-family="Helvetica,sans-Serif" font-size="14.00" fill="#000000">value = [2, 3]</text>
<text text-anchor="middle" x="284.2689" y="-127.8" font-family="Helvetica,sans-Serif" font-size="14.00" fill="#000000">class = True</text>
</g>
<!-- 7&#45;&gt;8 -->
<g id="edge8" class="edge">
<title>7&#45;&gt;8</title>
<path fill="none" stroke="#000000" d="M301.5213,-238.9891C299.1852,-227.9142 296.6862,-216.0674 294.336,-204.9254"/>
<polygon fill="#000000" stroke="#000000" points="297.717,-203.9958 292.2283,-194.9335 290.8677,-205.4406 297.717,-203.9958"/>
</g>
<!-- 9 -->
<g id="node10" class="node">
<title>9</title>
<path fill="#399de5" stroke="#000000" d="M435.3078,-194.9003C435.3078,-194.9003 363.23,-194.9003 363.23,-194.9003 357.23,-194.9003 351.23,-188.9003 351.23,-182.9003 351.23,-182.9003 351.23,-131.4997 351.23,-131.4997 351.23,-125.4997 357.23,-119.4997 363.23,-119.4997 363.23,-119.4997 435.3078,-119.4997 435.3078,-119.4997 441.3078,-119.4997 447.3078,-125.4997 447.3078,-131.4997 447.3078,-131.4997 447.3078,-182.9003 447.3078,-182.9003 447.3078,-188.9003 441.3078,-194.9003 435.3078,-194.9003"/>
<text text-anchor="middle" x="399.2689" y="-178.2" font-family="Helvetica,sans-Serif" font-size="14.00" fill="#000000">gini = 0.0</text>
<text text-anchor="middle" x="399.2689" y="-161.4" font-family="Helvetica,sans-Serif" font-size="14.00" fill="#000000">samples = 5</text>
<text text-anchor="middle" x="399.2689" y="-144.6" font-family="Helvetica,sans-Serif" font-size="14.00" fill="#000000">value = [0, 5]</text>
<text text-anchor="middle" x="399.2689" y="-127.8" font-family="Helvetica,sans-Serif" font-size="14.00" fill="#000000">class = True</text>
</g>
<!-- 7&#45;&gt;9 -->
<g id="edge9" class="edge">
<title>7&#45;&gt;9</title>
<path fill="none" stroke="#000000" d="M343.0389,-238.9891C351.0414,-227.3492 359.6301,-214.8565 367.6262,-203.2257"/>
<polygon fill="#000000" stroke="#000000" points="370.5459,-205.1568 373.3271,-194.9335 364.7776,-201.1911 370.5459,-205.1568"/>
</g>
<!-- 11 -->
<g id="node12" class="node">
<title>11</title>
<path fill="#399de5" stroke="#000000" d="M488.3078,-450.9003C488.3078,-450.9003 416.23,-450.9003 416.23,-450.9003 410.23,-450.9003 404.23,-444.9003 404.23,-438.9003 404.23,-438.9003 404.23,-387.4997 404.23,-387.4997 404.23,-381.4997 410.23,-375.4997 416.23,-375.4997 416.23,-375.4997 488.3078,-375.4997 488.3078,-375.4997 494.3078,-375.4997 500.3078,-381.4997 500.3078,-387.4997 500.3078,-387.4997 500.3078,-438.9003 500.3078,-438.9003 500.3078,-444.9003 494.3078,-450.9003 488.3078,-450.9003"/>
<text text-anchor="middle" x="452.2689" y="-434.2" font-family="Helvetica,sans-Serif" font-size="14.00" fill="#000000">gini = 0.0</text>
<text text-anchor="middle" x="452.2689" y="-417.4" font-family="Helvetica,sans-Serif" font-size="14.00" fill="#000000">samples = 5</text>
<text text-anchor="middle" x="452.2689" y="-400.6" font-family="Helvetica,sans-Serif" font-size="14.00" fill="#000000">value = [0, 5]</text>
<text text-anchor="middle" x="452.2689" y="-383.8" font-family="Helvetica,sans-Serif" font-size="14.00" fill="#000000">class = True</text>
</g>
<!-- 10&#45;&gt;11 -->
<g id="edge11" class="edge">
<title>10&#45;&gt;11</title>
<path fill="none" stroke="#000000" d="M452.2689,-494.9891C452.2689,-484.0272 452.2689,-472.309 452.2689,-461.2667"/>
<polygon fill="#000000" stroke="#000000" points="455.769,-460.9335 452.2689,-450.9335 448.769,-460.9335 455.769,-460.9335"/>
</g>
<!-- 12 -->
<g id="node13" class="node">
<title>12</title>
<path fill="#f2c19e" stroke="#000000" d="M639.3719,-459.2C639.3719,-459.2 551.1659,-459.2 551.1659,-459.2 545.1659,-459.2 539.1659,-453.2 539.1659,-447.2 539.1659,-447.2 539.1659,-379.2 539.1659,-379.2 539.1659,-373.2 545.1659,-367.2 551.1659,-367.2 551.1659,-367.2 639.3719,-367.2 639.3719,-367.2 645.3719,-367.2 651.3719,-373.2 651.3719,-379.2 651.3719,-379.2 651.3719,-447.2 651.3719,-447.2 651.3719,-453.2 645.3719,-459.2 639.3719,-459.2"/>
<text text-anchor="middle" x="595.2689" y="-442.6" font-family="Helvetica,sans-Serif" font-size="14.00" fill="#000000">Age &lt;= 43.0</text>
<text text-anchor="middle" x="595.2689" y="-425.8" font-family="Helvetica,sans-Serif" font-size="14.00" fill="#000000">gini = 0.448</text>
<text text-anchor="middle" x="595.2689" y="-409" font-family="Helvetica,sans-Serif" font-size="14.00" fill="#000000">samples = 71</text>
<text text-anchor="middle" x="595.2689" y="-392.2" font-family="Helvetica,sans-Serif" font-size="14.00" fill="#000000">value = [47, 24]</text>
<text text-anchor="middle" x="595.2689" y="-375.4" font-family="Helvetica,sans-Serif" font-size="14.00" fill="#000000">class = False</text>
</g>
<!-- 10&#45;&gt;12 -->
<g id="edge12" class="edge">
<title>10&#45;&gt;12</title>
<path fill="none" stroke="#000000" d="M503.8952,-494.9891C514.3241,-485.6541 525.3658,-475.7706 536.0321,-466.2231"/>
<polygon fill="#000000" stroke="#000000" points="538.6016,-468.6205 543.7184,-459.3431 533.933,-463.4047 538.6016,-468.6205"/>
</g>
<!-- 13 -->
<g id="node14" class="node">
<title>13</title>
<path fill="#fae7d9" stroke="#000000" d="M639.3719,-331.2C639.3719,-331.2 551.1659,-331.2 551.1659,-331.2 545.1659,-331.2 539.1659,-325.2 539.1659,-319.2 539.1659,-319.2 539.1659,-251.2 539.1659,-251.2 539.1659,-245.2 545.1659,-239.2 551.1659,-239.2 551.1659,-239.2 639.3719,-239.2 639.3719,-239.2 645.3719,-239.2 651.3719,-245.2 651.3719,-251.2 651.3719,-251.2 651.3719,-319.2 651.3719,-319.2 651.3719,-325.2 645.3719,-331.2 639.3719,-331.2"/>
<text text-anchor="middle" x="595.2689" y="-314.6" font-family="Helvetica,sans-Serif" font-size="14.00" fill="#000000">Fare &lt;= 7.85</text>
<text text-anchor="middle" x="595.2689" y="-297.8" font-family="Helvetica,sans-Serif" font-size="14.00" fill="#000000">gini = 0.494</text>
<text text-anchor="middle" x="595.2689" y="-281" font-family="Helvetica,sans-Serif" font-size="14.00" fill="#000000">samples = 38</text>
<text text-anchor="middle" x="595.2689" y="-264.2" font-family="Helvetica,sans-Serif" font-size="14.00" fill="#000000">value = [21, 17]</text>
<text text-anchor="middle" x="595.2689" y="-247.4" font-family="Helvetica,sans-Serif" font-size="14.00" fill="#000000">class = False</text>
</g>
<!-- 12&#45;&gt;13 -->
<g id="edge13" class="edge">
<title>12&#45;&gt;13</title>
<path fill="none" stroke="#000000" d="M595.2689,-366.9891C595.2689,-358.7417 595.2689,-350.0661 595.2689,-341.5724"/>
<polygon fill="#000000" stroke="#000000" points="598.769,-341.3431 595.2689,-331.3431 591.769,-341.3431 598.769,-341.3431"/>
</g>
<!-- 18 -->
<g id="node19" class="node">
<title>18</title>
<path fill="#eca36e" stroke="#000000" d="M803.5898,-331.2C803.5898,-331.2 722.948,-331.2 722.948,-331.2 716.948,-331.2 710.948,-325.2 710.948,-319.2 710.948,-319.2 710.948,-251.2 710.948,-251.2 710.948,-245.2 716.948,-239.2 722.948,-239.2 722.948,-239.2 803.5898,-239.2 803.5898,-239.2 809.5898,-239.2 815.5898,-245.2 815.5898,-251.2 815.5898,-251.2 815.5898,-319.2 815.5898,-319.2 815.5898,-325.2 809.5898,-331.2 803.5898,-331.2"/>
<text text-anchor="middle" x="763.2689" y="-314.6" font-family="Helvetica,sans-Serif" font-size="14.00" fill="#000000">Age &lt;= 47.5</text>
<text text-anchor="middle" x="763.2689" y="-297.8" font-family="Helvetica,sans-Serif" font-size="14.00" fill="#000000">gini = 0.334</text>
<text text-anchor="middle" x="763.2689" y="-281" font-family="Helvetica,sans-Serif" font-size="14.00" fill="#000000">samples = 33</text>
<text text-anchor="middle" x="763.2689" y="-264.2" font-family="Helvetica,sans-Serif" font-size="14.00" fill="#000000">value = [26, 7]</text>
<text text-anchor="middle" x="763.2689" y="-247.4" font-family="Helvetica,sans-Serif" font-size="14.00" fill="#000000">class = False</text>
</g>
<!-- 12&#45;&gt;18 -->
<g id="edge18" class="edge">
<title>12&#45;&gt;18</title>
<path fill="none" stroke="#000000" d="M651.6778,-370.2218C668.1435,-357.6765 686.2004,-343.9189 702.9006,-331.1949"/>
<polygon fill="#000000" stroke="#000000" points="705.1438,-333.8859 710.977,-325.0414 700.9015,-328.3179 705.1438,-333.8859"/>
</g>
<!-- 14 -->
<g id="node15" class="node">
<title>14</title>
<path fill="#e58139" stroke="#000000" d="M551.3383,-194.9003C551.3383,-194.9003 477.1995,-194.9003 477.1995,-194.9003 471.1995,-194.9003 465.1995,-188.9003 465.1995,-182.9003 465.1995,-182.9003 465.1995,-131.4997 465.1995,-131.4997 465.1995,-125.4997 471.1995,-119.4997 477.1995,-119.4997 477.1995,-119.4997 551.3383,-119.4997 551.3383,-119.4997 557.3383,-119.4997 563.3383,-125.4997 563.3383,-131.4997 563.3383,-131.4997 563.3383,-182.9003 563.3383,-182.9003 563.3383,-188.9003 557.3383,-194.9003 551.3383,-194.9003"/>
<text text-anchor="middle" x="514.2689" y="-178.2" font-family="Helvetica,sans-Serif" font-size="14.00" fill="#000000">gini = 0.0</text>
<text text-anchor="middle" x="514.2689" y="-161.4" font-family="Helvetica,sans-Serif" font-size="14.00" fill="#000000">samples = 5</text>
<text text-anchor="middle" x="514.2689" y="-144.6" font-family="Helvetica,sans-Serif" font-size="14.00" fill="#000000">value = [5, 0]</text>
<text text-anchor="middle" x="514.2689" y="-127.8" font-family="Helvetica,sans-Serif" font-size="14.00" fill="#000000">class = False</text>
</g>
<!-- 13&#45;&gt;14 -->
<g id="edge14" class="edge">
<title>13&#45;&gt;14</title>
<path fill="none" stroke="#000000" d="M566.026,-238.9891C558.7317,-227.4622 550.9081,-215.099 543.6091,-203.5647"/>
<polygon fill="#000000" stroke="#000000" points="546.4521,-201.5121 538.1471,-194.9335 540.537,-205.2553 546.4521,-201.5121"/>
</g>
<!-- 15 -->
<g id="node16" class="node">
<title>15</title>
<path fill="#f3f9fd" stroke="#000000" d="M681.3719,-203.2C681.3719,-203.2 593.1659,-203.2 593.1659,-203.2 587.1659,-203.2 581.1659,-197.2 581.1659,-191.2 581.1659,-191.2 581.1659,-123.2 581.1659,-123.2 581.1659,-117.2 587.1659,-111.2 593.1659,-111.2 593.1659,-111.2 681.3719,-111.2 681.3719,-111.2 687.3719,-111.2 693.3719,-117.2 693.3719,-123.2 693.3719,-123.2 693.3719,-191.2 693.3719,-191.2 693.3719,-197.2 687.3719,-203.2 681.3719,-203.2"/>
<text text-anchor="middle" x="637.2689" y="-186.6" font-family="Helvetica,sans-Serif" font-size="14.00" fill="#000000">Fare &lt;= 70.323</text>
<text text-anchor="middle" x="637.2689" y="-169.8" font-family="Helvetica,sans-Serif" font-size="14.00" fill="#000000">gini = 0.5</text>
<text text-anchor="middle" x="637.2689" y="-153" font-family="Helvetica,sans-Serif" font-size="14.00" fill="#000000">samples = 33</text>
<text text-anchor="middle" x="637.2689" y="-136.2" font-family="Helvetica,sans-Serif" font-size="14.00" fill="#000000">value = [16, 17]</text>
<text text-anchor="middle" x="637.2689" y="-119.4" font-family="Helvetica,sans-Serif" font-size="14.00" fill="#000000">class = True</text>
</g>
<!-- 13&#45;&gt;15 -->
<g id="edge15" class="edge">
<title>13&#45;&gt;15</title>
<path fill="none" stroke="#000000" d="M610.4319,-238.9891C613.1975,-230.5604 616.1099,-221.6846 618.9554,-213.0127"/>
<polygon fill="#000000" stroke="#000000" points="622.336,-213.9359 622.1282,-203.3431 615.6849,-211.7535 622.336,-213.9359"/>
</g>
<!-- 16 -->
<g id="node17" class="node">
<title>16</title>
<path fill="#a3d1f3" stroke="#000000" d="M620.5898,-75.3003C620.5898,-75.3003 539.948,-75.3003 539.948,-75.3003 533.948,-75.3003 527.948,-69.3003 527.948,-63.3003 527.948,-63.3003 527.948,-11.8997 527.948,-11.8997 527.948,-5.8997 533.948,.1003 539.948,.1003 539.948,.1003 620.5898,.1003 620.5898,.1003 626.5898,.1003 632.5898,-5.8997 632.5898,-11.8997 632.5898,-11.8997 632.5898,-63.3003 632.5898,-63.3003 632.5898,-69.3003 626.5898,-75.3003 620.5898,-75.3003"/>
<text text-anchor="middle" x="580.2689" y="-58.6" font-family="Helvetica,sans-Serif" font-size="14.00" fill="#000000">gini = 0.454</text>
<text text-anchor="middle" x="580.2689" y="-41.8" font-family="Helvetica,sans-Serif" font-size="14.00" fill="#000000">samples = 23</text>
<text text-anchor="middle" x="580.2689" y="-25" font-family="Helvetica,sans-Serif" font-size="14.00" fill="#000000">value = [8, 15]</text>
<text text-anchor="middle" x="580.2689" y="-8.2" font-family="Helvetica,sans-Serif" font-size="14.00" fill="#000000">class = True</text>
</g>
<!-- 15&#45;&gt;16 -->
<g id="edge16" class="edge">
<title>15&#45;&gt;16</title>
<path fill="none" stroke="#000000" d="M615.2312,-110.9595C611.0901,-102.2704 606.7568,-93.1781 602.6066,-84.47"/>
<polygon fill="#000000" stroke="#000000" points="605.6547,-82.7302 598.1928,-75.2088 599.3356,-85.7419 605.6547,-82.7302"/>
</g>
<!-- 17 -->
<g id="node18" class="node">
<title>17</title>
<path fill="#eca06a" stroke="#000000" d="M737.9056,-75.3003C737.9056,-75.3003 662.6322,-75.3003 662.6322,-75.3003 656.6322,-75.3003 650.6322,-69.3003 650.6322,-63.3003 650.6322,-63.3003 650.6322,-11.8997 650.6322,-11.8997 650.6322,-5.8997 656.6322,.1003 662.6322,.1003 662.6322,.1003 737.9056,.1003 737.9056,.1003 743.9056,.1003 749.9056,-5.8997 749.9056,-11.8997 749.9056,-11.8997 749.9056,-63.3003 749.9056,-63.3003 749.9056,-69.3003 743.9056,-75.3003 737.9056,-75.3003"/>
<text text-anchor="middle" x="700.2689" y="-58.6" font-family="Helvetica,sans-Serif" font-size="14.00" fill="#000000">gini = 0.32</text>
<text text-anchor="middle" x="700.2689" y="-41.8" font-family="Helvetica,sans-Serif" font-size="14.00" fill="#000000">samples = 10</text>
<text text-anchor="middle" x="700.2689" y="-25" font-family="Helvetica,sans-Serif" font-size="14.00" fill="#000000">value = [8, 2]</text>
<text text-anchor="middle" x="700.2689" y="-8.2" font-family="Helvetica,sans-Serif" font-size="14.00" fill="#000000">class = False</text>
</g>
<!-- 15&#45;&gt;17 -->
<g id="edge17" class="edge">
<title>15&#45;&gt;17</title>
<path fill="none" stroke="#000000" d="M661.6263,-110.9595C666.2521,-102.178 671.0947,-92.9846 675.7262,-84.1922"/>
<polygon fill="#000000" stroke="#000000" points="678.8943,-85.6876 680.4582,-75.2088 672.701,-82.4252 678.8943,-85.6876"/>
</g>
<!-- 19 -->
<g id="node20" class="node">
<title>19</title>
<path fill="#e58139" stroke="#000000" d="M803.5898,-194.9003C803.5898,-194.9003 722.948,-194.9003 722.948,-194.9003 716.948,-194.9003 710.948,-188.9003 710.948,-182.9003 710.948,-182.9003 710.948,-131.4997 710.948,-131.4997 710.948,-125.4997 716.948,-119.4997 722.948,-119.4997 722.948,-119.4997 803.5898,-119.4997 803.5898,-119.4997 809.5898,-119.4997 815.5898,-125.4997 815.5898,-131.4997 815.5898,-131.4997 815.5898,-182.9003 815.5898,-182.9003 815.5898,-188.9003 809.5898,-194.9003 803.5898,-194.9003"/>
<text text-anchor="middle" x="763.2689" y="-178.2" font-family="Helvetica,sans-Serif" font-size="14.00" fill="#000000">gini = 0.0</text>
<text text-anchor="middle" x="763.2689" y="-161.4" font-family="Helvetica,sans-Serif" font-size="14.00" fill="#000000">samples = 10</text>
<text text-anchor="middle" x="763.2689" y="-144.6" font-family="Helvetica,sans-Serif" font-size="14.00" fill="#000000">value = [10, 0]</text>
<text text-anchor="middle" x="763.2689" y="-127.8" font-family="Helvetica,sans-Serif" font-size="14.00" fill="#000000">class = False</text>
</g>
<!-- 18&#45;&gt;19 -->
<g id="edge19" class="edge">
<title>18&#45;&gt;19</title>
<path fill="none" stroke="#000000" d="M763.2689,-238.9891C763.2689,-228.0272 763.2689,-216.309 763.2689,-205.2667"/>
<polygon fill="#000000" stroke="#000000" points="766.769,-204.9335 763.2689,-194.9335 759.769,-204.9335 766.769,-204.9335"/>
</g>
<!-- 20 -->
<g id="node21" class="node">
<title>20</title>
<path fill="#f0b890" stroke="#000000" d="M925.5898,-203.2C925.5898,-203.2 844.948,-203.2 844.948,-203.2 838.948,-203.2 832.948,-197.2 832.948,-191.2 832.948,-191.2 832.948,-123.2 832.948,-123.2 832.948,-117.2 838.948,-111.2 844.948,-111.2 844.948,-111.2 925.5898,-111.2 925.5898,-111.2 931.5898,-111.2 937.5898,-117.2 937.5898,-123.2 937.5898,-123.2 937.5898,-191.2 937.5898,-191.2 937.5898,-197.2 931.5898,-203.2 925.5898,-203.2"/>
<text text-anchor="middle" x="885.2689" y="-186.6" font-family="Helvetica,sans-Serif" font-size="14.00" fill="#000000">Age &lt;= 53.0</text>
<text text-anchor="middle" x="885.2689" y="-169.8" font-family="Helvetica,sans-Serif" font-size="14.00" fill="#000000">gini = 0.423</text>
<text text-anchor="middle" x="885.2689" y="-153" font-family="Helvetica,sans-Serif" font-size="14.00" fill="#000000">samples = 23</text>
<text text-anchor="middle" x="885.2689" y="-136.2" font-family="Helvetica,sans-Serif" font-size="14.00" fill="#000000">value = [16, 7]</text>
<text text-anchor="middle" x="885.2689" y="-119.4" font-family="Helvetica,sans-Serif" font-size="14.00" fill="#000000">class = False</text>
</g>
<!-- 18&#45;&gt;20 -->
<g id="edge20" class="edge">
<title>18&#45;&gt;20</title>
<path fill="none" stroke="#000000" d="M807.3137,-238.9891C816.0383,-229.8354 825.2656,-220.1543 834.2008,-210.7797"/>
<polygon fill="#000000" stroke="#000000" points="836.9229,-212.9966 841.2888,-203.3431 831.8558,-208.167 836.9229,-212.9966"/>
</g>
<!-- 21 -->
<g id="node22" class="node">
<title>21</title>
<path fill="#d7ebfa" stroke="#000000" d="M859.3078,-75.3003C859.3078,-75.3003 787.23,-75.3003 787.23,-75.3003 781.23,-75.3003 775.23,-69.3003 775.23,-63.3003 775.23,-63.3003 775.23,-11.8997 775.23,-11.8997 775.23,-5.8997 781.23,.1003 787.23,.1003 787.23,.1003 859.3078,.1003 859.3078,.1003 865.3078,.1003 871.3078,-5.8997 871.3078,-11.8997 871.3078,-11.8997 871.3078,-63.3003 871.3078,-63.3003 871.3078,-69.3003 865.3078,-75.3003 859.3078,-75.3003"/>
<text text-anchor="middle" x="823.2689" y="-58.6" font-family="Helvetica,sans-Serif" font-size="14.00" fill="#000000">gini = 0.494</text>
<text text-anchor="middle" x="823.2689" y="-41.8" font-family="Helvetica,sans-Serif" font-size="14.00" fill="#000000">samples = 9</text>
<text text-anchor="middle" x="823.2689" y="-25" font-family="Helvetica,sans-Serif" font-size="14.00" fill="#000000">value = [4, 5]</text>
<text text-anchor="middle" x="823.2689" y="-8.2" font-family="Helvetica,sans-Serif" font-size="14.00" fill="#000000">class = True</text>
</g>
<!-- 20&#45;&gt;21 -->
<g id="edge21" class="edge">
<title>20&#45;&gt;21</title>
<path fill="none" stroke="#000000" d="M861.2981,-110.9595C856.7458,-102.178 851.98,-92.9846 847.4221,-84.1922"/>
<polygon fill="#000000" stroke="#000000" points="850.4748,-82.476 842.7651,-75.2088 844.2602,-85.6977 850.4748,-82.476"/>
</g>
<!-- 22 -->
<g id="node23" class="node">
<title>22</title>
<path fill="#e9965a" stroke="#000000" d="M981.5898,-75.3003C981.5898,-75.3003 900.948,-75.3003 900.948,-75.3003 894.948,-75.3003 888.948,-69.3003 888.948,-63.3003 888.948,-63.3003 888.948,-11.8997 888.948,-11.8997 888.948,-5.8997 894.948,.1003 900.948,.1003 900.948,.1003 981.5898,.1003 981.5898,.1003 987.5898,.1003 993.5898,-5.8997 993.5898,-11.8997 993.5898,-11.8997 993.5898,-63.3003 993.5898,-63.3003 993.5898,-69.3003 987.5898,-75.3003 981.5898,-75.3003"/>
<text text-anchor="middle" x="941.2689" y="-58.6" font-family="Helvetica,sans-Serif" font-size="14.00" fill="#000000">gini = 0.245</text>
<text text-anchor="middle" x="941.2689" y="-41.8" font-family="Helvetica,sans-Serif" font-size="14.00" fill="#000000">samples = 14</text>
<text text-anchor="middle" x="941.2689" y="-25" font-family="Helvetica,sans-Serif" font-size="14.00" fill="#000000">value = [12, 2]</text>
<text text-anchor="middle" x="941.2689" y="-8.2" font-family="Helvetica,sans-Serif" font-size="14.00" fill="#000000">class = False</text>
</g>
<!-- 20&#45;&gt;22 -->
<g id="edge22" class="edge">
<title>20&#45;&gt;22</title>
<path fill="none" stroke="#000000" d="M906.92,-110.9595C910.9884,-102.2704 915.2457,-93.1781 919.3231,-84.47"/>
<polygon fill="#000000" stroke="#000000" points="922.5886,-85.7494 923.6594,-75.2088 916.2492,-82.7811 922.5886,-85.7494"/>
</g>
</g>
</svg>
