<?xml version="1.0" encoding="UTF-8" standalone="no"?>
<!DOCTYPE svg PUBLIC "-//W3C//DTD SVG 1.1//EN"
 "http://www.w3.org/Graphics/SVG/1.1/DTD/svg11.dtd">
<!-- Generated by graphviz version 2.40.1 (20161225.0304)
 -->
<!-- Title: Tree Pages: 1 -->
<svg width="7811pt" height="723pt"
 viewBox="0.00 0.00 7811.38 723.20" xmlns="http://www.w3.org/2000/svg" xmlns:xlink="http://www.w3.org/1999/xlink">
<g id="graph0" class="graph" transform="scale(1 1) rotate(0) translate(4 719.2)">
<title>Tree</title>
<polygon fill="#ffffff" stroke="transparent" points="-4,4 -4,-719.2 7807.3771,-719.2 7807.3771,4 -4,4"/>
<!-- 0 -->
<g id="node1" class="node">
<title>0</title>
<path fill="#fbeafc" stroke="#000000" d="M4281.7504,-715.2C4281.7504,-715.2 3968.1702,-715.2 3968.1702,-715.2 3962.1702,-715.2 3956.1702,-709.2 3956.1702,-703.2 3956.1702,-703.2 3956.1702,-635.2 3956.1702,-635.2 3956.1702,-629.2 3962.1702,-623.2 3968.1702,-623.2 3968.1702,-623.2 4281.7504,-623.2 4281.7504,-623.2 4287.7504,-623.2 4293.7504,-629.2 4293.7504,-635.2 4293.7504,-635.2 4293.7504,-703.2 4293.7504,-703.2 4293.7504,-709.2 4287.7504,-715.2 4281.7504,-715.2"/>
<text text-anchor="middle" x="4124.9603" y="-698.6" font-family="Helvetica,sans-Serif" font-size="14.00" fill="#000000">Year &lt;= 2001.5</text>
<text text-anchor="middle" x="4124.9603" y="-681.8" font-family="Helvetica,sans-Serif" font-size="14.00" fill="#000000">entropy = 2.261</text>
<text text-anchor="middle" x="4124.9603" y="-665" font-family="Helvetica,sans-Serif" font-size="14.00" fill="#000000">samples = 14661</text>
<text text-anchor="middle" x="4124.9603" y="-648.2" font-family="Helvetica,sans-Serif" font-size="14.00" fill="#000000">value = [1649, 2338, 28, 29, 3851, 1657, 4985, 124]</text>
<text text-anchor="middle" x="4124.9603" y="-631.4" font-family="Helvetica,sans-Serif" font-size="14.00" fill="#000000">class = Poor</text>
</g>
<!-- 1 -->
<g id="node2" class="node">
<title>1</title>
<path fill="#f8dffb" stroke="#000000" d="M2882.4899,-587.2C2882.4899,-587.2 2631.4307,-587.2 2631.4307,-587.2 2625.4307,-587.2 2619.4307,-581.2 2619.4307,-575.2 2619.4307,-575.2 2619.4307,-507.2 2619.4307,-507.2 2619.4307,-501.2 2625.4307,-495.2 2631.4307,-495.2 2631.4307,-495.2 2882.4899,-495.2 2882.4899,-495.2 2888.4899,-495.2 2894.4899,-501.2 2894.4899,-507.2 2894.4899,-507.2 2894.4899,-575.2 2894.4899,-575.2 2894.4899,-581.2 2888.4899,-587.2 2882.4899,-587.2"/>
<text text-anchor="middle" x="2756.9603" y="-570.6" font-family="Helvetica,sans-Serif" font-size="14.00" fill="#000000">Year &lt;= 1990.5</text>
<text text-anchor="middle" x="2756.9603" y="-553.8" font-family="Helvetica,sans-Serif" font-size="14.00" fill="#000000">entropy = 2.365</text>
<text text-anchor="middle" x="2756.9603" y="-537" font-family="Helvetica,sans-Serif" font-size="14.00" fill="#000000">samples = 2513</text>
<text text-anchor="middle" x="2756.9603" y="-520.2" font-family="Helvetica,sans-Serif" font-size="14.00" fill="#000000">value = [331, 492, 8, 6, 356, 455, 823, 42]</text>
<text text-anchor="middle" x="2756.9603" y="-503.4" font-family="Helvetica,sans-Serif" font-size="14.00" fill="#000000">class = Poor</text>
</g>
<!-- 0&#45;&gt;1 -->
<g id="edge1" class="edge">
<title>0&#45;&gt;1</title>
<path fill="none" stroke="#000000" d="M3955.8446,-653.3763C3685.6619,-628.0961 3161.0764,-579.012 2904.9078,-555.043"/>
<polygon fill="#000000" stroke="#000000" points="2905.0684,-551.5429 2894.7858,-554.096 2904.4162,-558.5124 2905.0684,-551.5429"/>
<text text-anchor="middle" x="2910.7397" y="-569.1436" font-family="Helvetica,sans-Serif" font-size="14.00" fill="#000000">True</text>
</g>
<!-- 32 -->
<g id="node33" class="node">
<title>32</title>
<path fill="#fcf0fd" stroke="#000000" d="M4757.9677,-587.2C4757.9677,-587.2 4451.9529,-587.2 4451.9529,-587.2 4445.9529,-587.2 4439.9529,-581.2 4439.9529,-575.2 4439.9529,-575.2 4439.9529,-507.2 4439.9529,-507.2 4439.9529,-501.2 4445.9529,-495.2 4451.9529,-495.2 4451.9529,-495.2 4757.9677,-495.2 4757.9677,-495.2 4763.9677,-495.2 4769.9677,-501.2 4769.9677,-507.2 4769.9677,-507.2 4769.9677,-575.2 4769.9677,-575.2 4769.9677,-581.2 4763.9677,-587.2 4757.9677,-587.2"/>
<text text-anchor="middle" x="4604.9603" y="-570.6" font-family="Helvetica,sans-Serif" font-size="14.00" fill="#000000">Platform &lt;= 14.0</text>
<text text-anchor="middle" x="4604.9603" y="-553.8" font-family="Helvetica,sans-Serif" font-size="14.00" fill="#000000">entropy = 2.218</text>
<text text-anchor="middle" x="4604.9603" y="-537" font-family="Helvetica,sans-Serif" font-size="14.00" fill="#000000">samples = 12148</text>
<text text-anchor="middle" x="4604.9603" y="-520.2" font-family="Helvetica,sans-Serif" font-size="14.00" fill="#000000">value = [1318, 1846, 20, 23, 3495, 1202, 4162, 82]</text>
<text text-anchor="middle" x="4604.9603" y="-503.4" font-family="Helvetica,sans-Serif" font-size="14.00" fill="#000000">class = Poor</text>
</g>
<!-- 0&#45;&gt;32 -->
<g id="edge32" class="edge">
<title>0&#45;&gt;32</title>
<path fill="none" stroke="#000000" d="M4293.8528,-624.162C4338.0022,-612.3888 4385.6806,-599.6746 4430.1317,-587.821"/>
<polygon fill="#000000" stroke="#000000" points="4431.1012,-591.1848 4439.8617,-585.2263 4429.2975,-584.4212 4431.1012,-591.1848"/>
<text text-anchor="middle" x="4427.3358" y="-602.6619" font-family="Helvetica,sans-Serif" font-size="14.00" fill="#000000">False</text>
</g>
<!-- 2 -->
<g id="node3" class="node">
<title>2</title>
<path fill="#c8bff7" stroke="#000000" d="M1384.5113,-459.2C1384.5113,-459.2 1187.4093,-459.2 1187.4093,-459.2 1181.4093,-459.2 1175.4093,-453.2 1175.4093,-447.2 1175.4093,-447.2 1175.4093,-379.2 1175.4093,-379.2 1175.4093,-373.2 1181.4093,-367.2 1187.4093,-367.2 1187.4093,-367.2 1384.5113,-367.2 1384.5113,-367.2 1390.5113,-367.2 1396.5113,-373.2 1396.5113,-379.2 1396.5113,-379.2 1396.5113,-447.2 1396.5113,-447.2 1396.5113,-453.2 1390.5113,-459.2 1384.5113,-459.2"/>
<text text-anchor="middle" x="1285.9603" y="-442.6" font-family="Helvetica,sans-Serif" font-size="14.00" fill="#000000">Platform &lt;= 2.0</text>
<text text-anchor="middle" x="1285.9603" y="-425.8" font-family="Helvetica,sans-Serif" font-size="14.00" fill="#000000">entropy = 2.116</text>
<text text-anchor="middle" x="1285.9603" y="-409" font-family="Helvetica,sans-Serif" font-size="14.00" fill="#000000">samples = 199</text>
<text text-anchor="middle" x="1285.9603" y="-392.2" font-family="Helvetica,sans-Serif" font-size="14.00" fill="#000000">value = [33, 41, 6, 0, 4, 92, 19, 4]</text>
<text text-anchor="middle" x="1285.9603" y="-375.4" font-family="Helvetica,sans-Serif" font-size="14.00" fill="#000000">class = Good</text>
</g>
<!-- 1&#45;&gt;2 -->
<g id="edge2" class="edge">
<title>1&#45;&gt;2</title>
<path fill="none" stroke="#000000" d="M2619.2333,-529.2156C2333.1169,-504.319 1678.5229,-447.3591 1407.2144,-423.751"/>
<polygon fill="#000000" stroke="#000000" points="1407.2061,-420.2371 1396.9403,-422.857 1406.5992,-427.2108 1407.2061,-420.2371"/>
</g>
<!-- 17 -->
<g id="node18" class="node">
<title>17</title>
<path fill="#f7d9fa" stroke="#000000" d="M2882.4899,-459.2C2882.4899,-459.2 2631.4307,-459.2 2631.4307,-459.2 2625.4307,-459.2 2619.4307,-453.2 2619.4307,-447.2 2619.4307,-447.2 2619.4307,-379.2 2619.4307,-379.2 2619.4307,-373.2 2625.4307,-367.2 2631.4307,-367.2 2631.4307,-367.2 2882.4899,-367.2 2882.4899,-367.2 2888.4899,-367.2 2894.4899,-373.2 2894.4899,-379.2 2894.4899,-379.2 2894.4899,-447.2 2894.4899,-447.2 2894.4899,-453.2 2888.4899,-459.2 2882.4899,-459.2"/>
<text text-anchor="middle" x="2756.9603" y="-442.6" font-family="Helvetica,sans-Serif" font-size="14.00" fill="#000000">Publisher &lt;= 145.0</text>
<text text-anchor="middle" x="2756.9603" y="-425.8" font-family="Helvetica,sans-Serif" font-size="14.00" fill="#000000">entropy = 2.331</text>
<text text-anchor="middle" x="2756.9603" y="-409" font-family="Helvetica,sans-Serif" font-size="14.00" fill="#000000">samples = 2314</text>
<text text-anchor="middle" x="2756.9603" y="-392.2" font-family="Helvetica,sans-Serif" font-size="14.00" fill="#000000">value = [298, 451, 2, 6, 352, 363, 804, 38]</text>
<text text-anchor="middle" x="2756.9603" y="-375.4" font-family="Helvetica,sans-Serif" font-size="14.00" fill="#000000">class = Poor</text>
</g>
<!-- 1&#45;&gt;17 -->
<g id="edge17" class="edge">
<title>1&#45;&gt;17</title>
<path fill="none" stroke="#000000" d="M2756.9603,-494.9891C2756.9603,-486.7417 2756.9603,-478.0661 2756.9603,-469.5724"/>
<polygon fill="#000000" stroke="#000000" points="2760.4604,-469.3431 2756.9603,-459.3431 2753.4604,-469.3431 2760.4604,-469.3431"/>
</g>
<!-- 3 -->
<g id="node4" class="node">
<title>3</title>
<path fill="#f5fada" stroke="#000000" d="M742.5113,-331.2C742.5113,-331.2 545.4093,-331.2 545.4093,-331.2 539.4093,-331.2 533.4093,-325.2 533.4093,-319.2 533.4093,-319.2 533.4093,-251.2 533.4093,-251.2 533.4093,-245.2 539.4093,-239.2 545.4093,-239.2 545.4093,-239.2 742.5113,-239.2 742.5113,-239.2 748.5113,-239.2 754.5113,-245.2 754.5113,-251.2 754.5113,-251.2 754.5113,-319.2 754.5113,-319.2 754.5113,-325.2 748.5113,-331.2 742.5113,-331.2"/>
<text text-anchor="middle" x="643.9603" y="-314.6" font-family="Helvetica,sans-Serif" font-size="14.00" fill="#000000">Genre &lt;= 2.5</text>
<text text-anchor="middle" x="643.9603" y="-297.8" font-family="Helvetica,sans-Serif" font-size="14.00" fill="#000000">entropy = 2.0</text>
<text text-anchor="middle" x="643.9603" y="-281" font-family="Helvetica,sans-Serif" font-size="14.00" fill="#000000">samples = 105</text>
<text text-anchor="middle" x="643.9603" y="-264.2" font-family="Helvetica,sans-Serif" font-size="14.00" fill="#000000">value = [24, 39, 0, 0, 0, 22, 19, 1]</text>
<text text-anchor="middle" x="643.9603" y="-247.4" font-family="Helvetica,sans-Serif" font-size="14.00" fill="#000000">class = Average</text>
</g>
<!-- 2&#45;&gt;3 -->
<g id="edge3" class="edge">
<title>2&#45;&gt;3</title>
<path fill="none" stroke="#000000" d="M1175.2312,-391.1232C1060.8231,-368.3128 882.7846,-332.8161 764.7926,-309.2912"/>
<polygon fill="#000000" stroke="#000000" points="765.1231,-305.7883 754.6318,-307.2653 763.7544,-312.6531 765.1231,-305.7883"/>
</g>
<!-- 10 -->
<g id="node11" class="node">
<title>10</title>
<path fill="#8671ec" stroke="#000000" d="M1372.6637,-331.2C1372.6637,-331.2 1199.2569,-331.2 1199.2569,-331.2 1193.2569,-331.2 1187.2569,-325.2 1187.2569,-319.2 1187.2569,-319.2 1187.2569,-251.2 1187.2569,-251.2 1187.2569,-245.2 1193.2569,-239.2 1199.2569,-239.2 1199.2569,-239.2 1372.6637,-239.2 1372.6637,-239.2 1378.6637,-239.2 1384.6637,-245.2 1384.6637,-251.2 1384.6637,-251.2 1384.6637,-319.2 1384.6637,-319.2 1384.6637,-325.2 1378.6637,-331.2 1372.6637,-331.2"/>
<text text-anchor="middle" x="1285.9603" y="-314.6" font-family="Helvetica,sans-Serif" font-size="14.00" fill="#000000">Publisher &lt;= 353.0</text>
<text text-anchor="middle" x="1285.9603" y="-297.8" font-family="Helvetica,sans-Serif" font-size="14.00" fill="#000000">entropy = 1.365</text>
<text text-anchor="middle" x="1285.9603" y="-281" font-family="Helvetica,sans-Serif" font-size="14.00" fill="#000000">samples = 94</text>
<text text-anchor="middle" x="1285.9603" y="-264.2" font-family="Helvetica,sans-Serif" font-size="14.00" fill="#000000">value = [9, 2, 6, 0, 4, 70, 0, 3]</text>
<text text-anchor="middle" x="1285.9603" y="-247.4" font-family="Helvetica,sans-Serif" font-size="14.00" fill="#000000">class = Good</text>
</g>
<!-- 2&#45;&gt;10 -->
<g id="edge10" class="edge">
<title>2&#45;&gt;10</title>
<path fill="none" stroke="#000000" d="M1285.9603,-366.9891C1285.9603,-358.7417 1285.9603,-350.0661 1285.9603,-341.5724"/>
<polygon fill="#000000" stroke="#000000" points="1289.4604,-341.3431 1285.9603,-331.3431 1282.4604,-341.3431 1289.4604,-341.3431"/>
</g>
<!-- 4 -->
<g id="node5" class="node">
<title>4</title>
<path fill="#ecf6bb" stroke="#000000" d="M401.7289,-203.2C401.7289,-203.2 212.1917,-203.2 212.1917,-203.2 206.1917,-203.2 200.1917,-197.2 200.1917,-191.2 200.1917,-191.2 200.1917,-123.2 200.1917,-123.2 200.1917,-117.2 206.1917,-111.2 212.1917,-111.2 212.1917,-111.2 401.7289,-111.2 401.7289,-111.2 407.7289,-111.2 413.7289,-117.2 413.7289,-123.2 413.7289,-123.2 413.7289,-191.2 413.7289,-191.2 413.7289,-197.2 407.7289,-203.2 401.7289,-203.2"/>
<text text-anchor="middle" x="306.9603" y="-186.6" font-family="Helvetica,sans-Serif" font-size="14.00" fill="#000000">Year &lt;= 1981.5</text>
<text text-anchor="middle" x="306.9603" y="-169.8" font-family="Helvetica,sans-Serif" font-size="14.00" fill="#000000">entropy = 1.66</text>
<text text-anchor="middle" x="306.9603" y="-153" font-family="Helvetica,sans-Serif" font-size="14.00" fill="#000000">samples = 50</text>
<text text-anchor="middle" x="306.9603" y="-136.2" font-family="Helvetica,sans-Serif" font-size="14.00" fill="#000000">value = [12, 25, 0, 0, 0, 2, 11, 0]</text>
<text text-anchor="middle" x="306.9603" y="-119.4" font-family="Helvetica,sans-Serif" font-size="14.00" fill="#000000">class = Average</text>
</g>
<!-- 3&#45;&gt;4 -->
<g id="edge4" class="edge">
<title>3&#45;&gt;4</title>
<path fill="none" stroke="#000000" d="M533.1471,-243.1107C497.9263,-229.7331 458.8813,-214.9029 423.2834,-201.3821"/>
<polygon fill="#000000" stroke="#000000" points="424.4191,-198.0695 413.8279,-197.7907 421.9335,-204.6134 424.4191,-198.0695"/>
</g>
<!-- 7 -->
<g id="node8" class="node">
<title>7</title>
<path fill="#e6e2fb" stroke="#000000" d="M738.7289,-203.2C738.7289,-203.2 549.1917,-203.2 549.1917,-203.2 543.1917,-203.2 537.1917,-197.2 537.1917,-191.2 537.1917,-191.2 537.1917,-123.2 537.1917,-123.2 537.1917,-117.2 543.1917,-111.2 549.1917,-111.2 549.1917,-111.2 738.7289,-111.2 738.7289,-111.2 744.7289,-111.2 750.7289,-117.2 750.7289,-123.2 750.7289,-123.2 750.7289,-191.2 750.7289,-191.2 750.7289,-197.2 744.7289,-203.2 738.7289,-203.2"/>
<text text-anchor="middle" x="643.9603" y="-186.6" font-family="Helvetica,sans-Serif" font-size="14.00" fill="#000000">Genre &lt;= 8.5</text>
<text text-anchor="middle" x="643.9603" y="-169.8" font-family="Helvetica,sans-Serif" font-size="14.00" fill="#000000">entropy = 2.022</text>
<text text-anchor="middle" x="643.9603" y="-153" font-family="Helvetica,sans-Serif" font-size="14.00" fill="#000000">samples = 55</text>
<text text-anchor="middle" x="643.9603" y="-136.2" font-family="Helvetica,sans-Serif" font-size="14.00" fill="#000000">value = [12, 14, 0, 0, 0, 20, 8, 1]</text>
<text text-anchor="middle" x="643.9603" y="-119.4" font-family="Helvetica,sans-Serif" font-size="14.00" fill="#000000">class = Good</text>
</g>
<!-- 3&#45;&gt;7 -->
<g id="edge7" class="edge">
<title>3&#45;&gt;7</title>
<path fill="none" stroke="#000000" d="M643.9603,-238.9891C643.9603,-230.7417 643.9603,-222.0661 643.9603,-213.5724"/>
<polygon fill="#000000" stroke="#000000" points="647.4604,-213.3431 643.9603,-203.3431 640.4604,-213.3431 647.4604,-213.3431"/>
</g>
<!-- 5 -->
<g id="node6" class="node">
<title>5</title>
<path fill="#f4fad7" stroke="#000000" d="M177.8809,-75.3003C177.8809,-75.3003 12.0397,-75.3003 12.0397,-75.3003 6.0397,-75.3003 .0397,-69.3003 .0397,-63.3003 .0397,-63.3003 .0397,-11.8997 .0397,-11.8997 .0397,-5.8997 6.0397,.1003 12.0397,.1003 12.0397,.1003 177.8809,.1003 177.8809,.1003 183.8809,.1003 189.8809,-5.8997 189.8809,-11.8997 189.8809,-11.8997 189.8809,-63.3003 189.8809,-63.3003 189.8809,-69.3003 183.8809,-75.3003 177.8809,-75.3003"/>
<text text-anchor="middle" x="94.9603" y="-58.6" font-family="Helvetica,sans-Serif" font-size="14.00" fill="#000000">entropy = 1.819</text>
<text text-anchor="middle" x="94.9603" y="-41.8" font-family="Helvetica,sans-Serif" font-size="14.00" fill="#000000">samples = 21</text>
<text text-anchor="middle" x="94.9603" y="-25" font-family="Helvetica,sans-Serif" font-size="14.00" fill="#000000">value = [6, 9, 0, 0, 0, 2, 4, 0]</text>
<text text-anchor="middle" x="94.9603" y="-8.2" font-family="Helvetica,sans-Serif" font-size="14.00" fill="#000000">class = Average</text>
</g>
<!-- 4&#45;&gt;5 -->
<g id="edge5" class="edge">
<title>4&#45;&gt;5</title>
<path fill="none" stroke="#000000" d="M225.2988,-111.1306C207.4196,-101.044 188.5638,-90.4065 170.9187,-80.452"/>
<polygon fill="#000000" stroke="#000000" points="172.2427,-77.1804 161.8133,-75.3152 168.8032,-83.2772 172.2427,-77.1804"/>
</g>
<!-- 6 -->
<g id="node7" class="node">
<title>6</title>
<path fill="#e8f4ae" stroke="#000000" d="M393.6637,-75.3003C393.6637,-75.3003 220.2569,-75.3003 220.2569,-75.3003 214.2569,-75.3003 208.2569,-69.3003 208.2569,-63.3003 208.2569,-63.3003 208.2569,-11.8997 208.2569,-11.8997 208.2569,-5.8997 214.2569,.1003 220.2569,.1003 220.2569,.1003 393.6637,.1003 393.6637,.1003 399.6637,.1003 405.6637,-5.8997 405.6637,-11.8997 405.6637,-11.8997 405.6637,-63.3003 405.6637,-63.3003 405.6637,-69.3003 399.6637,-75.3003 393.6637,-75.3003"/>
<text text-anchor="middle" x="306.9603" y="-58.6" font-family="Helvetica,sans-Serif" font-size="14.00" fill="#000000">entropy = 1.439</text>
<text text-anchor="middle" x="306.9603" y="-41.8" font-family="Helvetica,sans-Serif" font-size="14.00" fill="#000000">samples = 29</text>
<text text-anchor="middle" x="306.9603" y="-25" font-family="Helvetica,sans-Serif" font-size="14.00" fill="#000000">value = [6, 16, 0, 0, 0, 0, 7, 0]</text>
<text text-anchor="middle" x="306.9603" y="-8.2" font-family="Helvetica,sans-Serif" font-size="14.00" fill="#000000">class = Average</text>
</g>
<!-- 4&#45;&gt;6 -->
<g id="edge6" class="edge">
<title>4&#45;&gt;6</title>
<path fill="none" stroke="#000000" d="M306.9603,-110.9595C306.9603,-102.5477 306.9603,-93.7581 306.9603,-85.3049"/>
<polygon fill="#000000" stroke="#000000" points="310.4604,-85.2088 306.9603,-75.2088 303.4604,-85.2089 310.4604,-85.2088"/>
</g>
<!-- 8 -->
<g id="node9" class="node">
<title>8</title>
<path fill="#d4ccf8" stroke="#000000" d="M624.7289,-75.3003C624.7289,-75.3003 435.1917,-75.3003 435.1917,-75.3003 429.1917,-75.3003 423.1917,-69.3003 423.1917,-63.3003 423.1917,-63.3003 423.1917,-11.8997 423.1917,-11.8997 423.1917,-5.8997 429.1917,.1003 435.1917,.1003 435.1917,.1003 624.7289,.1003 624.7289,.1003 630.7289,.1003 636.7289,-5.8997 636.7289,-11.8997 636.7289,-11.8997 636.7289,-63.3003 636.7289,-63.3003 636.7289,-69.3003 630.7289,-75.3003 624.7289,-75.3003"/>
<text text-anchor="middle" x="529.9603" y="-58.6" font-family="Helvetica,sans-Serif" font-size="14.00" fill="#000000">entropy = 1.921</text>
<text text-anchor="middle" x="529.9603" y="-41.8" font-family="Helvetica,sans-Serif" font-size="14.00" fill="#000000">samples = 46</text>
<text text-anchor="middle" x="529.9603" y="-25" font-family="Helvetica,sans-Serif" font-size="14.00" fill="#000000">value = [11, 10, 0, 0, 0, 20, 4, 1]</text>
<text text-anchor="middle" x="529.9603" y="-8.2" font-family="Helvetica,sans-Serif" font-size="14.00" fill="#000000">class = Good</text>
</g>
<!-- 7&#45;&gt;8 -->
<g id="edge8" class="edge">
<title>7&#45;&gt;8</title>
<path fill="none" stroke="#000000" d="M599.8849,-110.9595C590.9859,-101.6233 581.6432,-91.8217 572.7878,-82.5313"/>
<polygon fill="#000000" stroke="#000000" points="575.2413,-80.0325 565.8082,-75.2088 570.1743,-84.8622 575.2413,-80.0325"/>
</g>
<!-- 9 -->
<g id="node10" class="node">
<title>9</title>
<path fill="#ffffff" stroke="#000000" d="M832.8809,-75.3003C832.8809,-75.3003 667.0397,-75.3003 667.0397,-75.3003 661.0397,-75.3003 655.0397,-69.3003 655.0397,-63.3003 655.0397,-63.3003 655.0397,-11.8997 655.0397,-11.8997 655.0397,-5.8997 661.0397,.1003 667.0397,.1003 667.0397,.1003 832.8809,.1003 832.8809,.1003 838.8809,.1003 844.8809,-5.8997 844.8809,-11.8997 844.8809,-11.8997 844.8809,-63.3003 844.8809,-63.3003 844.8809,-69.3003 838.8809,-75.3003 832.8809,-75.3003"/>
<text text-anchor="middle" x="749.9603" y="-58.6" font-family="Helvetica,sans-Serif" font-size="14.00" fill="#000000">entropy = 1.392</text>
<text text-anchor="middle" x="749.9603" y="-41.8" font-family="Helvetica,sans-Serif" font-size="14.00" fill="#000000">samples = 9</text>
<text text-anchor="middle" x="749.9603" y="-25" font-family="Helvetica,sans-Serif" font-size="14.00" fill="#000000">value = [1, 4, 0, 0, 0, 0, 4, 0]</text>
<text text-anchor="middle" x="749.9603" y="-8.2" font-family="Helvetica,sans-Serif" font-size="14.00" fill="#000000">class = Average</text>
</g>
<!-- 7&#45;&gt;9 -->
<g id="edge9" class="edge">
<title>7&#45;&gt;9</title>
<path fill="none" stroke="#000000" d="M684.9427,-110.9595C693.1353,-101.7158 701.7323,-92.0157 709.8935,-82.8074"/>
<polygon fill="#000000" stroke="#000000" points="712.6146,-85.0141 716.6281,-75.2088 707.376,-80.3711 712.6146,-85.0141"/>
</g>
<!-- 11 -->
<g id="node12" class="node">
<title>11</title>
<path fill="#8570ec" stroke="#000000" d="M1264.6637,-203.2C1264.6637,-203.2 1091.2569,-203.2 1091.2569,-203.2 1085.2569,-203.2 1079.2569,-197.2 1079.2569,-191.2 1079.2569,-191.2 1079.2569,-123.2 1079.2569,-123.2 1079.2569,-117.2 1085.2569,-111.2 1091.2569,-111.2 1091.2569,-111.2 1264.6637,-111.2 1264.6637,-111.2 1270.6637,-111.2 1276.6637,-117.2 1276.6637,-123.2 1276.6637,-123.2 1276.6637,-191.2 1276.6637,-191.2 1276.6637,-197.2 1270.6637,-203.2 1264.6637,-203.2"/>
<text text-anchor="middle" x="1177.9603" y="-186.6" font-family="Helvetica,sans-Serif" font-size="14.00" fill="#000000">Genre &lt;= 4.5</text>
<text text-anchor="middle" x="1177.9603" y="-169.8" font-family="Helvetica,sans-Serif" font-size="14.00" fill="#000000">entropy = 1.192</text>
<text text-anchor="middle" x="1177.9603" y="-153" font-family="Helvetica,sans-Serif" font-size="14.00" fill="#000000">samples = 40</text>
<text text-anchor="middle" x="1177.9603" y="-136.2" font-family="Helvetica,sans-Serif" font-size="14.00" fill="#000000">value = [4, 2, 0, 0, 4, 30, 0, 0]</text>
<text text-anchor="middle" x="1177.9603" y="-119.4" font-family="Helvetica,sans-Serif" font-size="14.00" fill="#000000">class = Good</text>
</g>
<!-- 10&#45;&gt;11 -->
<g id="edge11" class="edge">
<title>10&#45;&gt;11</title>
<path fill="none" stroke="#000000" d="M1246.9698,-238.9891C1239.3229,-229.926 1231.2397,-220.3459 1223.4032,-211.0582"/>
<polygon fill="#000000" stroke="#000000" points="1226.0173,-208.729 1216.8935,-203.3431 1220.6673,-213.2431 1226.0173,-208.729"/>
</g>
<!-- 14 -->
<g id="node15" class="node">
<title>14</title>
<path fill="#8773ed" stroke="#000000" d="M1480.6637,-203.2C1480.6637,-203.2 1307.2569,-203.2 1307.2569,-203.2 1301.2569,-203.2 1295.2569,-197.2 1295.2569,-191.2 1295.2569,-191.2 1295.2569,-123.2 1295.2569,-123.2 1295.2569,-117.2 1301.2569,-111.2 1307.2569,-111.2 1307.2569,-111.2 1480.6637,-111.2 1480.6637,-111.2 1486.6637,-111.2 1492.6637,-117.2 1492.6637,-123.2 1492.6637,-123.2 1492.6637,-191.2 1492.6637,-191.2 1492.6637,-197.2 1486.6637,-203.2 1480.6637,-203.2"/>
<text text-anchor="middle" x="1393.9603" y="-186.6" font-family="Helvetica,sans-Serif" font-size="14.00" fill="#000000">Year &lt;= 1987.5</text>
<text text-anchor="middle" x="1393.9603" y="-169.8" font-family="Helvetica,sans-Serif" font-size="14.00" fill="#000000">entropy = 1.222</text>
<text text-anchor="middle" x="1393.9603" y="-153" font-family="Helvetica,sans-Serif" font-size="14.00" fill="#000000">samples = 54</text>
<text text-anchor="middle" x="1393.9603" y="-136.2" font-family="Helvetica,sans-Serif" font-size="14.00" fill="#000000">value = [5, 0, 6, 0, 0, 40, 0, 3]</text>
<text text-anchor="middle" x="1393.9603" y="-119.4" font-family="Helvetica,sans-Serif" font-size="14.00" fill="#000000">class = Good</text>
</g>
<!-- 10&#45;&gt;14 -->
<g id="edge14" class="edge">
<title>10&#45;&gt;14</title>
<path fill="none" stroke="#000000" d="M1324.9508,-238.9891C1332.5977,-229.926 1340.6809,-220.3459 1348.5174,-211.0582"/>
<polygon fill="#000000" stroke="#000000" points="1351.2533,-213.2431 1355.0271,-203.3431 1345.9033,-208.729 1351.2533,-213.2431"/>
</g>
<!-- 12 -->
<g id="node13" class="node">
<title>12</title>
<path fill="#8b77ed" stroke="#000000" d="M1048.6637,-75.3003C1048.6637,-75.3003 875.2569,-75.3003 875.2569,-75.3003 869.2569,-75.3003 863.2569,-69.3003 863.2569,-63.3003 863.2569,-63.3003 863.2569,-11.8997 863.2569,-11.8997 863.2569,-5.8997 869.2569,.1003 875.2569,.1003 875.2569,.1003 1048.6637,.1003 1048.6637,.1003 1054.6637,.1003 1060.6637,-5.8997 1060.6637,-11.8997 1060.6637,-11.8997 1060.6637,-63.3003 1060.6637,-63.3003 1060.6637,-69.3003 1054.6637,-75.3003 1048.6637,-75.3003"/>
<text text-anchor="middle" x="961.9603" y="-58.6" font-family="Helvetica,sans-Serif" font-size="14.00" fill="#000000">entropy = 0.992</text>
<text text-anchor="middle" x="961.9603" y="-41.8" font-family="Helvetica,sans-Serif" font-size="14.00" fill="#000000">samples = 20</text>
<text text-anchor="middle" x="961.9603" y="-25" font-family="Helvetica,sans-Serif" font-size="14.00" fill="#000000">value = [4, 0, 0, 0, 1, 15, 0, 0]</text>
<text text-anchor="middle" x="961.9603" y="-8.2" font-family="Helvetica,sans-Serif" font-size="14.00" fill="#000000">class = Good</text>
</g>
<!-- 11&#45;&gt;12 -->
<g id="edge12" class="edge">
<title>11&#45;&gt;12</title>
<path fill="none" stroke="#000000" d="M1094.758,-111.1306C1076.3744,-100.9515 1056.9774,-90.2113 1038.8574,-80.1782"/>
<polygon fill="#000000" stroke="#000000" points="1040.5186,-77.0973 1030.0747,-75.3152 1037.1277,-83.2213 1040.5186,-77.0973"/>
</g>
<!-- 13 -->
<g id="node14" class="node">
<title>13</title>
<path fill="#8873ed" stroke="#000000" d="M1264.6637,-75.3003C1264.6637,-75.3003 1091.2569,-75.3003 1091.2569,-75.3003 1085.2569,-75.3003 1079.2569,-69.3003 1079.2569,-63.3003 1079.2569,-63.3003 1079.2569,-11.8997 1079.2569,-11.8997 1079.2569,-5.8997 1085.2569,.1003 1091.2569,.1003 1091.2569,.1003 1264.6637,.1003 1264.6637,.1003 1270.6637,.1003 1276.6637,-5.8997 1276.6637,-11.8997 1276.6637,-11.8997 1276.6637,-63.3003 1276.6637,-63.3003 1276.6637,-69.3003 1270.6637,-75.3003 1264.6637,-75.3003"/>
<text text-anchor="middle" x="1177.9603" y="-58.6" font-family="Helvetica,sans-Serif" font-size="14.00" fill="#000000">entropy = 1.054</text>
<text text-anchor="middle" x="1177.9603" y="-41.8" font-family="Helvetica,sans-Serif" font-size="14.00" fill="#000000">samples = 20</text>
<text text-anchor="middle" x="1177.9603" y="-25" font-family="Helvetica,sans-Serif" font-size="14.00" fill="#000000">value = [0, 2, 0, 0, 3, 15, 0, 0]</text>
<text text-anchor="middle" x="1177.9603" y="-8.2" font-family="Helvetica,sans-Serif" font-size="14.00" fill="#000000">class = Good</text>
</g>
<!-- 11&#45;&gt;13 -->
<g id="edge13" class="edge">
<title>11&#45;&gt;13</title>
<path fill="none" stroke="#000000" d="M1177.9603,-110.9595C1177.9603,-102.5477 1177.9603,-93.7581 1177.9603,-85.3049"/>
<polygon fill="#000000" stroke="#000000" points="1181.4604,-85.2088 1177.9603,-75.2088 1174.4604,-85.2089 1181.4604,-85.2088"/>
</g>
<!-- 15 -->
<g id="node16" class="node">
<title>15</title>
<path fill="#7d67eb" stroke="#000000" d="M1480.6637,-75.3003C1480.6637,-75.3003 1307.2569,-75.3003 1307.2569,-75.3003 1301.2569,-75.3003 1295.2569,-69.3003 1295.2569,-63.3003 1295.2569,-63.3003 1295.2569,-11.8997 1295.2569,-11.8997 1295.2569,-5.8997 1301.2569,.1003 1307.2569,.1003 1307.2569,.1003 1480.6637,.1003 1480.6637,.1003 1486.6637,.1003 1492.6637,-5.8997 1492.6637,-11.8997 1492.6637,-11.8997 1492.6637,-63.3003 1492.6637,-63.3003 1492.6637,-69.3003 1486.6637,-75.3003 1480.6637,-75.3003"/>
<text text-anchor="middle" x="1393.9603" y="-58.6" font-family="Helvetica,sans-Serif" font-size="14.00" fill="#000000">entropy = 0.906</text>
<text text-anchor="middle" x="1393.9603" y="-41.8" font-family="Helvetica,sans-Serif" font-size="14.00" fill="#000000">samples = 30</text>
<text text-anchor="middle" x="1393.9603" y="-25" font-family="Helvetica,sans-Serif" font-size="14.00" fill="#000000">value = [4, 0, 2, 0, 0, 24, 0, 0]</text>
<text text-anchor="middle" x="1393.9603" y="-8.2" font-family="Helvetica,sans-Serif" font-size="14.00" fill="#000000">class = Good</text>
</g>
<!-- 14&#45;&gt;15 -->
<g id="edge15" class="edge">
<title>14&#45;&gt;15</title>
<path fill="none" stroke="#000000" d="M1393.9603,-110.9595C1393.9603,-102.5477 1393.9603,-93.7581 1393.9603,-85.3049"/>
<polygon fill="#000000" stroke="#000000" points="1397.4604,-85.2088 1393.9603,-75.2088 1390.4604,-85.2089 1397.4604,-85.2088"/>
</g>
<!-- 16 -->
<g id="node17" class="node">
<title>16</title>
<path fill="#9a88ef" stroke="#000000" d="M1696.6637,-75.3003C1696.6637,-75.3003 1523.2569,-75.3003 1523.2569,-75.3003 1517.2569,-75.3003 1511.2569,-69.3003 1511.2569,-63.3003 1511.2569,-63.3003 1511.2569,-11.8997 1511.2569,-11.8997 1511.2569,-5.8997 1517.2569,.1003 1523.2569,.1003 1523.2569,.1003 1696.6637,.1003 1696.6637,.1003 1702.6637,.1003 1708.6637,-5.8997 1708.6637,-11.8997 1708.6637,-11.8997 1708.6637,-63.3003 1708.6637,-63.3003 1708.6637,-69.3003 1702.6637,-75.3003 1696.6637,-75.3003"/>
<text text-anchor="middle" x="1609.9603" y="-58.6" font-family="Helvetica,sans-Serif" font-size="14.00" fill="#000000">entropy = 1.387</text>
<text text-anchor="middle" x="1609.9603" y="-41.8" font-family="Helvetica,sans-Serif" font-size="14.00" fill="#000000">samples = 24</text>
<text text-anchor="middle" x="1609.9603" y="-25" font-family="Helvetica,sans-Serif" font-size="14.00" fill="#000000">value = [1, 0, 4, 0, 0, 16, 0, 3]</text>
<text text-anchor="middle" x="1609.9603" y="-8.2" font-family="Helvetica,sans-Serif" font-size="14.00" fill="#000000">class = Good</text>
</g>
<!-- 14&#45;&gt;16 -->
<g id="edge16" class="edge">
<title>14&#45;&gt;16</title>
<path fill="none" stroke="#000000" d="M1477.1626,-111.1306C1495.5462,-100.9515 1514.9432,-90.2113 1533.0632,-80.1782"/>
<polygon fill="#000000" stroke="#000000" points="1534.7929,-83.2213 1541.8459,-75.3152 1531.402,-77.0973 1534.7929,-83.2213"/>
</g>
<!-- 18 -->
<g id="node19" class="node">
<title>18</title>
<path fill="#f9e1fb" stroke="#000000" d="M2545.9243,-331.2C2545.9243,-331.2 2309.9963,-331.2 2309.9963,-331.2 2303.9963,-331.2 2297.9963,-325.2 2297.9963,-319.2 2297.9963,-319.2 2297.9963,-251.2 2297.9963,-251.2 2297.9963,-245.2 2303.9963,-239.2 2309.9963,-239.2 2309.9963,-239.2 2545.9243,-239.2 2545.9243,-239.2 2551.9243,-239.2 2557.9243,-245.2 2557.9243,-251.2 2557.9243,-251.2 2557.9243,-319.2 2557.9243,-319.2 2557.9243,-325.2 2551.9243,-331.2 2545.9243,-331.2"/>
<text text-anchor="middle" x="2427.9603" y="-314.6" font-family="Helvetica,sans-Serif" font-size="14.00" fill="#000000">Publisher &lt;= 135.0</text>
<text text-anchor="middle" x="2427.9603" y="-297.8" font-family="Helvetica,sans-Serif" font-size="14.00" fill="#000000">entropy = 2.274</text>
<text text-anchor="middle" x="2427.9603" y="-281" font-family="Helvetica,sans-Serif" font-size="14.00" fill="#000000">samples = 662</text>
<text text-anchor="middle" x="2427.9603" y="-264.2" font-family="Helvetica,sans-Serif" font-size="14.00" fill="#000000">value = [117, 124, 0, 0, 75, 131, 212, 3]</text>
<text text-anchor="middle" x="2427.9603" y="-247.4" font-family="Helvetica,sans-Serif" font-size="14.00" fill="#000000">class = Poor</text>
</g>
<!-- 17&#45;&gt;18 -->
<g id="edge18" class="edge">
<title>17&#45;&gt;18</title>
<path fill="none" stroke="#000000" d="M2638.6486,-367.1699C2611.7876,-356.7194 2583.1386,-345.5733 2555.8985,-334.9754"/>
<polygon fill="#000000" stroke="#000000" points="2556.916,-331.6157 2546.3274,-331.2516 2554.3779,-338.1394 2556.916,-331.6157"/>
</g>
<!-- 25 -->
<g id="node26" class="node">
<title>25</title>
<path fill="#f7d7fa" stroke="#000000" d="M3002.4899,-331.2C3002.4899,-331.2 2751.4307,-331.2 2751.4307,-331.2 2745.4307,-331.2 2739.4307,-325.2 2739.4307,-319.2 2739.4307,-319.2 2739.4307,-251.2 2739.4307,-251.2 2739.4307,-245.2 2745.4307,-239.2 2751.4307,-239.2 2751.4307,-239.2 3002.4899,-239.2 3002.4899,-239.2 3008.4899,-239.2 3014.4899,-245.2 3014.4899,-251.2 3014.4899,-251.2 3014.4899,-319.2 3014.4899,-319.2 3014.4899,-325.2 3008.4899,-331.2 3002.4899,-331.2"/>
<text text-anchor="middle" x="2876.9603" y="-314.6" font-family="Helvetica,sans-Serif" font-size="14.00" fill="#000000">Publisher &lt;= 358.0</text>
<text text-anchor="middle" x="2876.9603" y="-297.8" font-family="Helvetica,sans-Serif" font-size="14.00" fill="#000000">entropy = 2.331</text>
<text text-anchor="middle" x="2876.9603" y="-281" font-family="Helvetica,sans-Serif" font-size="14.00" fill="#000000">samples = 1652</text>
<text text-anchor="middle" x="2876.9603" y="-264.2" font-family="Helvetica,sans-Serif" font-size="14.00" fill="#000000">value = [181, 327, 2, 6, 277, 232, 592, 35]</text>
<text text-anchor="middle" x="2876.9603" y="-247.4" font-family="Helvetica,sans-Serif" font-size="14.00" fill="#000000">class = Poor</text>
</g>
<!-- 17&#45;&gt;25 -->
<g id="edge25" class="edge">
<title>17&#45;&gt;25</title>
<path fill="none" stroke="#000000" d="M2800.2831,-366.9891C2808.8647,-357.8354 2817.9407,-348.1543 2826.7293,-338.7797"/>
<polygon fill="#000000" stroke="#000000" points="2829.4151,-341.0323 2833.7011,-331.3431 2824.3083,-336.2447 2829.4151,-341.0323"/>
</g>
<!-- 19 -->
<g id="node20" class="node">
<title>19</title>
<path fill="#f5cdf8" stroke="#000000" d="M2182.0768,-203.2C2182.0768,-203.2 1969.8438,-203.2 1969.8438,-203.2 1963.8438,-203.2 1957.8438,-197.2 1957.8438,-191.2 1957.8438,-191.2 1957.8438,-123.2 1957.8438,-123.2 1957.8438,-117.2 1963.8438,-111.2 1969.8438,-111.2 1969.8438,-111.2 2182.0768,-111.2 2182.0768,-111.2 2188.0768,-111.2 2194.0768,-117.2 2194.0768,-123.2 2194.0768,-123.2 2194.0768,-191.2 2194.0768,-191.2 2194.0768,-197.2 2188.0768,-203.2 2182.0768,-203.2"/>
<text text-anchor="middle" x="2075.9603" y="-186.6" font-family="Helvetica,sans-Serif" font-size="14.00" fill="#000000">Publisher &lt;= 127.0</text>
<text text-anchor="middle" x="2075.9603" y="-169.8" font-family="Helvetica,sans-Serif" font-size="14.00" fill="#000000">entropy = 2.191</text>
<text text-anchor="middle" x="2075.9603" y="-153" font-family="Helvetica,sans-Serif" font-size="14.00" fill="#000000">samples = 430</text>
<text text-anchor="middle" x="2075.9603" y="-136.2" font-family="Helvetica,sans-Serif" font-size="14.00" fill="#000000">value = [59, 83, 0, 0, 53, 62, 171, 2]</text>
<text text-anchor="middle" x="2075.9603" y="-119.4" font-family="Helvetica,sans-Serif" font-size="14.00" fill="#000000">class = Poor</text>
</g>
<!-- 18&#45;&gt;19 -->
<g id="edge19" class="edge">
<title>18&#45;&gt;19</title>
<path fill="none" stroke="#000000" d="M2301.3775,-239.1699C2269.6722,-227.6407 2235.6387,-215.2649 2203.8694,-203.7124"/>
<polygon fill="#000000" stroke="#000000" points="2204.6818,-200.2836 2194.0877,-200.1554 2202.2896,-206.8622 2204.6818,-200.2836"/>
</g>
<!-- 22 -->
<g id="node23" class="node">
<title>22</title>
<path fill="#f4f2fd" stroke="#000000" d="M2530.294,-203.2C2530.294,-203.2 2325.6266,-203.2 2325.6266,-203.2 2319.6266,-203.2 2313.6266,-197.2 2313.6266,-191.2 2313.6266,-191.2 2313.6266,-123.2 2313.6266,-123.2 2313.6266,-117.2 2319.6266,-111.2 2325.6266,-111.2 2325.6266,-111.2 2530.294,-111.2 2530.294,-111.2 2536.294,-111.2 2542.294,-117.2 2542.294,-123.2 2542.294,-123.2 2542.294,-191.2 2542.294,-191.2 2542.294,-197.2 2536.294,-203.2 2530.294,-203.2"/>
<text text-anchor="middle" x="2427.9603" y="-186.6" font-family="Helvetica,sans-Serif" font-size="14.00" fill="#000000">Platform &lt;= 18.5</text>
<text text-anchor="middle" x="2427.9603" y="-169.8" font-family="Helvetica,sans-Serif" font-size="14.00" fill="#000000">entropy = 2.26</text>
<text text-anchor="middle" x="2427.9603" y="-153" font-family="Helvetica,sans-Serif" font-size="14.00" fill="#000000">samples = 232</text>
<text text-anchor="middle" x="2427.9603" y="-136.2" font-family="Helvetica,sans-Serif" font-size="14.00" fill="#000000">value = [58, 41, 0, 0, 22, 69, 41, 1]</text>
<text text-anchor="middle" x="2427.9603" y="-119.4" font-family="Helvetica,sans-Serif" font-size="14.00" fill="#000000">class = Good</text>
</g>
<!-- 18&#45;&gt;22 -->
<g id="edge22" class="edge">
<title>18&#45;&gt;22</title>
<path fill="none" stroke="#000000" d="M2427.9603,-238.9891C2427.9603,-230.7417 2427.9603,-222.0661 2427.9603,-213.5724"/>
<polygon fill="#000000" stroke="#000000" points="2431.4604,-213.3431 2427.9603,-203.3431 2424.4604,-213.3431 2431.4604,-213.3431"/>
</g>
<!-- 20 -->
<g id="node21" class="node">
<title>20</title>
<path fill="#f5cbf8" stroke="#000000" d="M1951.0768,-75.3003C1951.0768,-75.3003 1738.8438,-75.3003 1738.8438,-75.3003 1732.8438,-75.3003 1726.8438,-69.3003 1726.8438,-63.3003 1726.8438,-63.3003 1726.8438,-11.8997 1726.8438,-11.8997 1726.8438,-5.8997 1732.8438,.1003 1738.8438,.1003 1738.8438,.1003 1951.0768,.1003 1951.0768,.1003 1957.0768,.1003 1963.0768,-5.8997 1963.0768,-11.8997 1963.0768,-11.8997 1963.0768,-63.3003 1963.0768,-63.3003 1963.0768,-69.3003 1957.0768,-75.3003 1951.0768,-75.3003"/>
<text text-anchor="middle" x="1844.9603" y="-58.6" font-family="Helvetica,sans-Serif" font-size="14.00" fill="#000000">entropy = 2.181</text>
<text text-anchor="middle" x="1844.9603" y="-41.8" font-family="Helvetica,sans-Serif" font-size="14.00" fill="#000000">samples = 424</text>
<text text-anchor="middle" x="1844.9603" y="-25" font-family="Helvetica,sans-Serif" font-size="14.00" fill="#000000">value = [59, 82, 0, 0, 48, 62, 171, 2]</text>
<text text-anchor="middle" x="1844.9603" y="-8.2" font-family="Helvetica,sans-Serif" font-size="14.00" fill="#000000">class = Poor</text>
</g>
<!-- 19&#45;&gt;20 -->
<g id="edge20" class="edge">
<title>19&#45;&gt;20</title>
<path fill="none" stroke="#000000" d="M1986.9801,-111.1306C1967.2304,-100.9052 1946.3872,-90.1137 1926.9333,-80.0414"/>
<polygon fill="#000000" stroke="#000000" points="1928.2945,-76.8049 1917.8049,-75.3152 1925.076,-83.0212 1928.2945,-76.8049"/>
</g>
<!-- 21 -->
<g id="node22" class="node">
<title>21</title>
<path fill="#61b1ea" stroke="#000000" d="M2158.8809,-75.3003C2158.8809,-75.3003 1993.0397,-75.3003 1993.0397,-75.3003 1987.0397,-75.3003 1981.0397,-69.3003 1981.0397,-63.3003 1981.0397,-63.3003 1981.0397,-11.8997 1981.0397,-11.8997 1981.0397,-5.8997 1987.0397,.1003 1993.0397,.1003 1993.0397,.1003 2158.8809,.1003 2158.8809,.1003 2164.8809,.1003 2170.8809,-5.8997 2170.8809,-11.8997 2170.8809,-11.8997 2170.8809,-63.3003 2170.8809,-63.3003 2170.8809,-69.3003 2164.8809,-75.3003 2158.8809,-75.3003"/>
<text text-anchor="middle" x="2075.9603" y="-58.6" font-family="Helvetica,sans-Serif" font-size="14.00" fill="#000000">entropy = 0.65</text>
<text text-anchor="middle" x="2075.9603" y="-41.8" font-family="Helvetica,sans-Serif" font-size="14.00" fill="#000000">samples = 6</text>
<text text-anchor="middle" x="2075.9603" y="-25" font-family="Helvetica,sans-Serif" font-size="14.00" fill="#000000">value = [0, 1, 0, 0, 5, 0, 0, 0]</text>
<text text-anchor="middle" x="2075.9603" y="-8.2" font-family="Helvetica,sans-Serif" font-size="14.00" fill="#000000">class = Extremely Poor</text>
</g>
<!-- 19&#45;&gt;21 -->
<g id="edge21" class="edge">
<title>19&#45;&gt;21</title>
<path fill="none" stroke="#000000" d="M2075.9603,-110.9595C2075.9603,-102.5477 2075.9603,-93.7581 2075.9603,-85.3049"/>
<polygon fill="#000000" stroke="#000000" points="2079.4604,-85.2088 2075.9603,-75.2088 2072.4604,-85.2089 2079.4604,-85.2088"/>
</g>
<!-- 23 -->
<g id="node24" class="node">
<title>23</title>
<path fill="#f9f7fe" stroke="#000000" d="M2405.294,-75.3003C2405.294,-75.3003 2200.6266,-75.3003 2200.6266,-75.3003 2194.6266,-75.3003 2188.6266,-69.3003 2188.6266,-63.3003 2188.6266,-63.3003 2188.6266,-11.8997 2188.6266,-11.8997 2188.6266,-5.8997 2194.6266,.1003 2200.6266,.1003 2200.6266,.1003 2405.294,.1003 2405.294,.1003 2411.294,.1003 2417.294,-5.8997 2417.294,-11.8997 2417.294,-11.8997 2417.294,-63.3003 2417.294,-63.3003 2417.294,-69.3003 2411.294,-75.3003 2405.294,-75.3003"/>
<text text-anchor="middle" x="2302.9603" y="-58.6" font-family="Helvetica,sans-Serif" font-size="14.00" fill="#000000">entropy = 2.246</text>
<text text-anchor="middle" x="2302.9603" y="-41.8" font-family="Helvetica,sans-Serif" font-size="14.00" fill="#000000">samples = 214</text>
<text text-anchor="middle" x="2302.9603" y="-25" font-family="Helvetica,sans-Serif" font-size="14.00" fill="#000000">value = [58, 34, 0, 0, 20, 64, 37, 1]</text>
<text text-anchor="middle" x="2302.9603" y="-8.2" font-family="Helvetica,sans-Serif" font-size="14.00" fill="#000000">class = Good</text>
</g>
<!-- 22&#45;&gt;23 -->
<g id="edge23" class="edge">
<title>22&#45;&gt;23</title>
<path fill="none" stroke="#000000" d="M2379.632,-110.9595C2369.7777,-101.5309 2359.4272,-91.6276 2349.632,-82.2555"/>
<polygon fill="#000000" stroke="#000000" points="2351.9123,-79.5932 2342.2672,-75.2088 2347.073,-84.651 2351.9123,-79.5932"/>
</g>
<!-- 24 -->
<g id="node25" class="node">
<title>24</title>
<path fill="#f7fbe1" stroke="#000000" d="M2612.8809,-75.3003C2612.8809,-75.3003 2447.0397,-75.3003 2447.0397,-75.3003 2441.0397,-75.3003 2435.0397,-69.3003 2435.0397,-63.3003 2435.0397,-63.3003 2435.0397,-11.8997 2435.0397,-11.8997 2435.0397,-5.8997 2441.0397,.1003 2447.0397,.1003 2447.0397,.1003 2612.8809,.1003 2612.8809,.1003 2618.8809,.1003 2624.8809,-5.8997 2624.8809,-11.8997 2624.8809,-11.8997 2624.8809,-63.3003 2624.8809,-63.3003 2624.8809,-69.3003 2618.8809,-75.3003 2612.8809,-75.3003"/>
<text text-anchor="middle" x="2529.9603" y="-58.6" font-family="Helvetica,sans-Serif" font-size="14.00" fill="#000000">entropy = 1.878</text>
<text text-anchor="middle" x="2529.9603" y="-41.8" font-family="Helvetica,sans-Serif" font-size="14.00" fill="#000000">samples = 18</text>
<text text-anchor="middle" x="2529.9603" y="-25" font-family="Helvetica,sans-Serif" font-size="14.00" fill="#000000">value = [0, 7, 0, 0, 2, 5, 4, 0]</text>
<text text-anchor="middle" x="2529.9603" y="-8.2" font-family="Helvetica,sans-Serif" font-size="14.00" fill="#000000">class = Average</text>
</g>
<!-- 22&#45;&gt;24 -->
<g id="edge24" class="edge">
<title>22&#45;&gt;24</title>
<path fill="none" stroke="#000000" d="M2467.3962,-110.9595C2475.2008,-101.8082 2483.3868,-92.2097 2491.1698,-83.0838"/>
<polygon fill="#000000" stroke="#000000" points="2494.0599,-85.0887 2497.8859,-75.2088 2488.7338,-80.5464 2494.0599,-85.0887"/>
</g>
<!-- 26 -->
<g id="node27" class="node">
<title>26</title>
<path fill="#f7d6fa" stroke="#000000" d="M2991.1418,-203.2C2991.1418,-203.2 2762.7788,-203.2 2762.7788,-203.2 2756.7788,-203.2 2750.7788,-197.2 2750.7788,-191.2 2750.7788,-191.2 2750.7788,-123.2 2750.7788,-123.2 2750.7788,-117.2 2756.7788,-111.2 2762.7788,-111.2 2762.7788,-111.2 2991.1418,-111.2 2991.1418,-111.2 2997.1418,-111.2 3003.1418,-117.2 3003.1418,-123.2 3003.1418,-123.2 3003.1418,-191.2 3003.1418,-191.2 3003.1418,-197.2 2997.1418,-203.2 2991.1418,-203.2"/>
<text text-anchor="middle" x="2876.9603" y="-186.6" font-family="Helvetica,sans-Serif" font-size="14.00" fill="#000000">Platform &lt;= 22.0</text>
<text text-anchor="middle" x="2876.9603" y="-169.8" font-family="Helvetica,sans-Serif" font-size="14.00" fill="#000000">entropy = 2.178</text>
<text text-anchor="middle" x="2876.9603" y="-153" font-family="Helvetica,sans-Serif" font-size="14.00" fill="#000000">samples = 673</text>
<text text-anchor="middle" x="2876.9603" y="-136.2" font-family="Helvetica,sans-Serif" font-size="14.00" fill="#000000">value = [75, 146, 0, 0, 138, 55, 254, 5]</text>
<text text-anchor="middle" x="2876.9603" y="-119.4" font-family="Helvetica,sans-Serif" font-size="14.00" fill="#000000">class = Poor</text>
</g>
<!-- 25&#45;&gt;26 -->
<g id="edge26" class="edge">
<title>25&#45;&gt;26</title>
<path fill="none" stroke="#000000" d="M2876.9603,-238.9891C2876.9603,-230.7417 2876.9603,-222.0661 2876.9603,-213.5724"/>
<polygon fill="#000000" stroke="#000000" points="2880.4604,-213.3431 2876.9603,-203.3431 2873.4604,-213.3431 2880.4604,-213.3431"/>
</g>
<!-- 29 -->
<g id="node30" class="node">
<title>29</title>
<path fill="#f7d8fa" stroke="#000000" d="M3392.4899,-203.2C3392.4899,-203.2 3141.4307,-203.2 3141.4307,-203.2 3135.4307,-203.2 3129.4307,-197.2 3129.4307,-191.2 3129.4307,-191.2 3129.4307,-123.2 3129.4307,-123.2 3129.4307,-117.2 3135.4307,-111.2 3141.4307,-111.2 3141.4307,-111.2 3392.4899,-111.2 3392.4899,-111.2 3398.4899,-111.2 3404.4899,-117.2 3404.4899,-123.2 3404.4899,-123.2 3404.4899,-191.2 3404.4899,-191.2 3404.4899,-197.2 3398.4899,-203.2 3392.4899,-203.2"/>
<text text-anchor="middle" x="3266.9603" y="-186.6" font-family="Helvetica,sans-Serif" font-size="14.00" fill="#000000">Publisher &lt;= 361.0</text>
<text text-anchor="middle" x="3266.9603" y="-169.8" font-family="Helvetica,sans-Serif" font-size="14.00" fill="#000000">entropy = 2.391</text>
<text text-anchor="middle" x="3266.9603" y="-153" font-family="Helvetica,sans-Serif" font-size="14.00" fill="#000000">samples = 979</text>
<text text-anchor="middle" x="3266.9603" y="-136.2" font-family="Helvetica,sans-Serif" font-size="14.00" fill="#000000">value = [106, 181, 2, 6, 139, 177, 338, 30]</text>
<text text-anchor="middle" x="3266.9603" y="-119.4" font-family="Helvetica,sans-Serif" font-size="14.00" fill="#000000">class = Poor</text>
</g>
<!-- 25&#45;&gt;29 -->
<g id="edge29" class="edge">
<title>25&#45;&gt;29</title>
<path fill="none" stroke="#000000" d="M3014.7341,-239.9819C3048.6976,-228.8349 3085.2023,-216.8539 3119.6003,-205.5643"/>
<polygon fill="#000000" stroke="#000000" points="3120.8326,-208.8436 3129.2425,-202.3997 3118.6497,-202.1927 3120.8326,-208.8436"/>
</g>
<!-- 27 -->
<g id="node28" class="node">
<title>27</title>
<path fill="#f6d2f9" stroke="#000000" d="M2883.1418,-75.3003C2883.1418,-75.3003 2654.7788,-75.3003 2654.7788,-75.3003 2648.7788,-75.3003 2642.7788,-69.3003 2642.7788,-63.3003 2642.7788,-63.3003 2642.7788,-11.8997 2642.7788,-11.8997 2642.7788,-5.8997 2648.7788,.1003 2654.7788,.1003 2654.7788,.1003 2883.1418,.1003 2883.1418,.1003 2889.1418,.1003 2895.1418,-5.8997 2895.1418,-11.8997 2895.1418,-11.8997 2895.1418,-63.3003 2895.1418,-63.3003 2895.1418,-69.3003 2889.1418,-75.3003 2883.1418,-75.3003"/>
<text text-anchor="middle" x="2768.9603" y="-58.6" font-family="Helvetica,sans-Serif" font-size="14.00" fill="#000000">entropy = 2.167</text>
<text text-anchor="middle" x="2768.9603" y="-41.8" font-family="Helvetica,sans-Serif" font-size="14.00" fill="#000000">samples = 569</text>
<text text-anchor="middle" x="2768.9603" y="-25" font-family="Helvetica,sans-Serif" font-size="14.00" fill="#000000">value = [61, 107, 0, 0, 122, 51, 224, 4]</text>
<text text-anchor="middle" x="2768.9603" y="-8.2" font-family="Helvetica,sans-Serif" font-size="14.00" fill="#000000">class = Poor</text>
</g>
<!-- 26&#45;&gt;27 -->
<g id="edge27" class="edge">
<title>26&#45;&gt;27</title>
<path fill="none" stroke="#000000" d="M2835.2047,-110.9595C2826.8575,-101.7158 2818.0983,-92.0157 2809.783,-82.8074"/>
<polygon fill="#000000" stroke="#000000" points="2812.2211,-80.285 2802.9214,-75.2088 2807.0258,-84.9764 2812.2211,-80.285"/>
</g>
<!-- 28 -->
<g id="node29" class="node">
<title>28</title>
<path fill="#f8fce7" stroke="#000000" d="M3122.5113,-75.3003C3122.5113,-75.3003 2925.4093,-75.3003 2925.4093,-75.3003 2919.4093,-75.3003 2913.4093,-69.3003 2913.4093,-63.3003 2913.4093,-63.3003 2913.4093,-11.8997 2913.4093,-11.8997 2913.4093,-5.8997 2919.4093,.1003 2925.4093,.1003 2925.4093,.1003 3122.5113,.1003 3122.5113,.1003 3128.5113,.1003 3134.5113,-5.8997 3134.5113,-11.8997 3134.5113,-11.8997 3134.5113,-63.3003 3134.5113,-63.3003 3134.5113,-69.3003 3128.5113,-75.3003 3122.5113,-75.3003"/>
<text text-anchor="middle" x="3023.9603" y="-58.6" font-family="Helvetica,sans-Serif" font-size="14.00" fill="#000000">entropy = 2.098</text>
<text text-anchor="middle" x="3023.9603" y="-41.8" font-family="Helvetica,sans-Serif" font-size="14.00" fill="#000000">samples = 104</text>
<text text-anchor="middle" x="3023.9603" y="-25" font-family="Helvetica,sans-Serif" font-size="14.00" fill="#000000">value = [14, 39, 0, 0, 16, 4, 30, 1]</text>
<text text-anchor="middle" x="3023.9603" y="-8.2" font-family="Helvetica,sans-Serif" font-size="14.00" fill="#000000">class = Average</text>
</g>
<!-- 26&#45;&gt;28 -->
<g id="edge28" class="edge">
<title>26&#45;&gt;28</title>
<path fill="none" stroke="#000000" d="M2933.7943,-110.9595C2945.6102,-101.346 2958.0327,-91.239 2969.7512,-81.7048"/>
<polygon fill="#000000" stroke="#000000" points="2972.1873,-84.2349 2977.7354,-75.2088 2967.7695,-78.805 2972.1873,-84.2349"/>
</g>
<!-- 30 -->
<g id="node31" class="node">
<title>30</title>
<path fill="#c8bef6" stroke="#000000" d="M3369.294,-75.3003C3369.294,-75.3003 3164.6266,-75.3003 3164.6266,-75.3003 3158.6266,-75.3003 3152.6266,-69.3003 3152.6266,-63.3003 3152.6266,-63.3003 3152.6266,-11.8997 3152.6266,-11.8997 3152.6266,-5.8997 3158.6266,.1003 3164.6266,.1003 3164.6266,.1003 3369.294,.1003 3369.294,.1003 3375.294,.1003 3381.294,-5.8997 3381.294,-11.8997 3381.294,-11.8997 3381.294,-63.3003 3381.294,-63.3003 3381.294,-69.3003 3375.294,-75.3003 3369.294,-75.3003"/>
<text text-anchor="middle" x="3266.9603" y="-58.6" font-family="Helvetica,sans-Serif" font-size="14.00" fill="#000000">entropy = 2.279</text>
<text text-anchor="middle" x="3266.9603" y="-41.8" font-family="Helvetica,sans-Serif" font-size="14.00" fill="#000000">samples = 142</text>
<text text-anchor="middle" x="3266.9603" y="-25" font-family="Helvetica,sans-Serif" font-size="14.00" fill="#000000">value = [17, 23, 2, 4, 0, 62, 17, 17]</text>
<text text-anchor="middle" x="3266.9603" y="-8.2" font-family="Helvetica,sans-Serif" font-size="14.00" fill="#000000">class = Good</text>
</g>
<!-- 29&#45;&gt;30 -->
<g id="edge30" class="edge">
<title>29&#45;&gt;30</title>
<path fill="none" stroke="#000000" d="M3266.9603,-110.9595C3266.9603,-102.5477 3266.9603,-93.7581 3266.9603,-85.3049"/>
<polygon fill="#000000" stroke="#000000" points="3270.4604,-85.2088 3266.9603,-75.2088 3263.4604,-85.2089 3270.4604,-85.2088"/>
</g>
<!-- 31 -->
<g id="node32" class="node">
<title>31</title>
<path fill="#f5cff9" stroke="#000000" d="M3654.707,-75.3003C3654.707,-75.3003 3411.2136,-75.3003 3411.2136,-75.3003 3405.2136,-75.3003 3399.2136,-69.3003 3399.2136,-63.3003 3399.2136,-63.3003 3399.2136,-11.8997 3399.2136,-11.8997 3399.2136,-5.8997 3405.2136,.1003 3411.2136,.1003 3411.2136,.1003 3654.707,.1003 3654.707,.1003 3660.707,.1003 3666.707,-5.8997 3666.707,-11.8997 3666.707,-11.8997 3666.707,-63.3003 3666.707,-63.3003 3666.707,-69.3003 3660.707,-75.3003 3654.707,-75.3003"/>
<text text-anchor="middle" x="3532.9603" y="-58.6" font-family="Helvetica,sans-Serif" font-size="14.00" fill="#000000">entropy = 2.266</text>
<text text-anchor="middle" x="3532.9603" y="-41.8" font-family="Helvetica,sans-Serif" font-size="14.00" fill="#000000">samples = 837</text>
<text text-anchor="middle" x="3532.9603" y="-25" font-family="Helvetica,sans-Serif" font-size="14.00" fill="#000000">value = [89, 158, 0, 2, 139, 115, 321, 13]</text>
<text text-anchor="middle" x="3532.9603" y="-8.2" font-family="Helvetica,sans-Serif" font-size="14.00" fill="#000000">class = Poor</text>
</g>
<!-- 29&#45;&gt;31 -->
<g id="edge31" class="edge">
<title>29&#45;&gt;31</title>
<path fill="none" stroke="#000000" d="M3369.4224,-111.1306C3392.576,-100.7202 3417.035,-89.7228 3439.782,-79.4952"/>
<polygon fill="#000000" stroke="#000000" points="3441.3934,-82.6082 3449.0787,-75.3152 3438.5229,-76.2239 3441.3934,-82.6082"/>
</g>
<!-- 33 -->
<g id="node34" class="node">
<title>33</title>
<path fill="#fafdfe" stroke="#000000" d="M4738.5547,-459.2C4738.5547,-459.2 4471.3659,-459.2 4471.3659,-459.2 4465.3659,-459.2 4459.3659,-453.2 4459.3659,-447.2 4459.3659,-447.2 4459.3659,-379.2 4459.3659,-379.2 4459.3659,-373.2 4465.3659,-367.2 4471.3659,-367.2 4471.3659,-367.2 4738.5547,-367.2 4738.5547,-367.2 4744.5547,-367.2 4750.5547,-373.2 4750.5547,-379.2 4750.5547,-379.2 4750.5547,-447.2 4750.5547,-447.2 4750.5547,-453.2 4744.5547,-459.2 4738.5547,-459.2"/>
<text text-anchor="middle" x="4604.9603" y="-442.6" font-family="Helvetica,sans-Serif" font-size="14.00" fill="#000000">Platform &lt;= 10.0</text>
<text text-anchor="middle" x="4604.9603" y="-425.8" font-family="Helvetica,sans-Serif" font-size="14.00" fill="#000000">entropy = 2.035</text>
<text text-anchor="middle" x="4604.9603" y="-409" font-family="Helvetica,sans-Serif" font-size="14.00" fill="#000000">samples = 4248</text>
<text text-anchor="middle" x="4604.9603" y="-392.2" font-family="Helvetica,sans-Serif" font-size="14.00" fill="#000000">value = [318, 556, 8, 7, 1575, 254, 1511, 19]</text>
<text text-anchor="middle" x="4604.9603" y="-375.4" font-family="Helvetica,sans-Serif" font-size="14.00" fill="#000000">class = Extremely Poor</text>
</g>
<!-- 32&#45;&gt;33 -->
<g id="edge33" class="edge">
<title>32&#45;&gt;33</title>
<path fill="none" stroke="#000000" d="M4604.9603,-494.9891C4604.9603,-486.7417 4604.9603,-478.0661 4604.9603,-469.5724"/>
<polygon fill="#000000" stroke="#000000" points="4608.4604,-469.3431 4604.9603,-459.3431 4601.4604,-469.3431 4608.4604,-469.3431"/>
</g>
<!-- 48 -->
<g id="node49" class="node">
<title>48</title>
<path fill="#fae7fc" stroke="#000000" d="M6405.1852,-459.2C6405.1852,-459.2 6106.7354,-459.2 6106.7354,-459.2 6100.7354,-459.2 6094.7354,-453.2 6094.7354,-447.2 6094.7354,-447.2 6094.7354,-379.2 6094.7354,-379.2 6094.7354,-373.2 6100.7354,-367.2 6106.7354,-367.2 6106.7354,-367.2 6405.1852,-367.2 6405.1852,-367.2 6411.1852,-367.2 6417.1852,-373.2 6417.1852,-379.2 6417.1852,-379.2 6417.1852,-447.2 6417.1852,-447.2 6417.1852,-453.2 6411.1852,-459.2 6405.1852,-459.2"/>
<text text-anchor="middle" x="6255.9603" y="-442.6" font-family="Helvetica,sans-Serif" font-size="14.00" fill="#000000">Year &lt;= 2014.5</text>
<text text-anchor="middle" x="6255.9603" y="-425.8" font-family="Helvetica,sans-Serif" font-size="14.00" fill="#000000">entropy = 2.284</text>
<text text-anchor="middle" x="6255.9603" y="-409" font-family="Helvetica,sans-Serif" font-size="14.00" fill="#000000">samples = 7900</text>
<text text-anchor="middle" x="6255.9603" y="-392.2" font-family="Helvetica,sans-Serif" font-size="14.00" fill="#000000">value = [1000, 1290, 12, 16, 1920, 948, 2651, 63]</text>
<text text-anchor="middle" x="6255.9603" y="-375.4" font-family="Helvetica,sans-Serif" font-size="14.00" fill="#000000">class = Poor</text>
</g>
<!-- 32&#45;&gt;48 -->
<g id="edge48" class="edge">
<title>32&#45;&gt;48</title>
<path fill="none" stroke="#000000" d="M4770.0614,-528.3999C5084.234,-504.0425 5765.1494,-451.252 6084.3291,-426.5064"/>
<polygon fill="#000000" stroke="#000000" points="6084.8985,-429.9728 6094.598,-425.7102 6084.3574,-422.9937 6084.8985,-429.9728"/>
</g>
<!-- 34 -->
<g id="node35" class="node">
<title>34</title>
<path fill="#fbe9fc" stroke="#000000" d="M4613.5547,-331.2C4613.5547,-331.2 4346.3659,-331.2 4346.3659,-331.2 4340.3659,-331.2 4334.3659,-325.2 4334.3659,-319.2 4334.3659,-319.2 4334.3659,-251.2 4334.3659,-251.2 4334.3659,-245.2 4340.3659,-239.2 4346.3659,-239.2 4346.3659,-239.2 4613.5547,-239.2 4613.5547,-239.2 4619.5547,-239.2 4625.5547,-245.2 4625.5547,-251.2 4625.5547,-251.2 4625.5547,-319.2 4625.5547,-319.2 4625.5547,-325.2 4619.5547,-331.2 4613.5547,-331.2"/>
<text text-anchor="middle" x="4479.9603" y="-314.6" font-family="Helvetica,sans-Serif" font-size="14.00" fill="#000000">Publisher &lt;= 357.5</text>
<text text-anchor="middle" x="4479.9603" y="-297.8" font-family="Helvetica,sans-Serif" font-size="14.00" fill="#000000">entropy = 2.08</text>
<text text-anchor="middle" x="4479.9603" y="-281" font-family="Helvetica,sans-Serif" font-size="14.00" fill="#000000">samples = 3456</text>
<text text-anchor="middle" x="4479.9603" y="-264.2" font-family="Helvetica,sans-Serif" font-size="14.00" fill="#000000">value = [276, 502, 8, 7, 1083, 221, 1342, 17]</text>
<text text-anchor="middle" x="4479.9603" y="-247.4" font-family="Helvetica,sans-Serif" font-size="14.00" fill="#000000">class = Poor</text>
</g>
<!-- 33&#45;&gt;34 -->
<g id="edge34" class="edge">
<title>33&#45;&gt;34</title>
<path fill="none" stroke="#000000" d="M4559.8324,-366.9891C4550.8048,-357.7447 4541.2518,-347.9625 4532.0124,-338.5013"/>
<polygon fill="#000000" stroke="#000000" points="4534.5127,-336.0522 4525.0219,-331.3431 4529.5046,-340.9429 4534.5127,-336.0522"/>
</g>
<!-- 41 -->
<g id="node42" class="node">
<title>41</title>
<path fill="#98ccf2" stroke="#000000" d="M5065.3594,-331.2C5065.3594,-331.2 4844.5612,-331.2 4844.5612,-331.2 4838.5612,-331.2 4832.5612,-325.2 4832.5612,-319.2 4832.5612,-319.2 4832.5612,-251.2 4832.5612,-251.2 4832.5612,-245.2 4838.5612,-239.2 4844.5612,-239.2 4844.5612,-239.2 5065.3594,-239.2 5065.3594,-239.2 5071.3594,-239.2 5077.3594,-245.2 5077.3594,-251.2 5077.3594,-251.2 5077.3594,-319.2 5077.3594,-319.2 5077.3594,-325.2 5071.3594,-331.2 5065.3594,-331.2"/>
<text text-anchor="middle" x="4954.9603" y="-314.6" font-family="Helvetica,sans-Serif" font-size="14.00" fill="#000000">Year &lt;= 2009.5</text>
<text text-anchor="middle" x="4954.9603" y="-297.8" font-family="Helvetica,sans-Serif" font-size="14.00" fill="#000000">entropy = 1.604</text>
<text text-anchor="middle" x="4954.9603" y="-281" font-family="Helvetica,sans-Serif" font-size="14.00" fill="#000000">samples = 792</text>
<text text-anchor="middle" x="4954.9603" y="-264.2" font-family="Helvetica,sans-Serif" font-size="14.00" fill="#000000">value = [42, 54, 0, 0, 492, 33, 169, 2]</text>
<text text-anchor="middle" x="4954.9603" y="-247.4" font-family="Helvetica,sans-Serif" font-size="14.00" fill="#000000">class = Extremely Poor</text>
</g>
<!-- 33&#45;&gt;41 -->
<g id="edge41" class="edge">
<title>33&#45;&gt;41</title>
<path fill="none" stroke="#000000" d="M4730.8238,-367.1699C4760.71,-356.2401 4792.6767,-344.5494 4822.8333,-333.5207"/>
<polygon fill="#000000" stroke="#000000" points="4824.3664,-336.6868 4832.5559,-329.965 4821.9621,-330.1127 4824.3664,-336.6868"/>
</g>
<!-- 35 -->
<g id="node36" class="node">
<title>35</title>
<path fill="#fcf1fd" stroke="#000000" d="M4194.9243,-203.2C4194.9243,-203.2 3958.9963,-203.2 3958.9963,-203.2 3952.9963,-203.2 3946.9963,-197.2 3946.9963,-191.2 3946.9963,-191.2 3946.9963,-123.2 3946.9963,-123.2 3946.9963,-117.2 3952.9963,-111.2 3958.9963,-111.2 3958.9963,-111.2 4194.9243,-111.2 4194.9243,-111.2 4200.9243,-111.2 4206.9243,-117.2 4206.9243,-123.2 4206.9243,-123.2 4206.9243,-191.2 4206.9243,-191.2 4206.9243,-197.2 4200.9243,-203.2 4194.9243,-203.2"/>
<text text-anchor="middle" x="4076.9603" y="-186.6" font-family="Helvetica,sans-Serif" font-size="14.00" fill="#000000">Publisher &lt;= 145.5</text>
<text text-anchor="middle" x="4076.9603" y="-169.8" font-family="Helvetica,sans-Serif" font-size="14.00" fill="#000000">entropy = 1.879</text>
<text text-anchor="middle" x="4076.9603" y="-153" font-family="Helvetica,sans-Serif" font-size="14.00" fill="#000000">samples = 1900</text>
<text text-anchor="middle" x="4076.9603" y="-136.2" font-family="Helvetica,sans-Serif" font-size="14.00" fill="#000000">value = [127, 260, 0, 0, 682, 62, 768, 1]</text>
<text text-anchor="middle" x="4076.9603" y="-119.4" font-family="Helvetica,sans-Serif" font-size="14.00" fill="#000000">class = Poor</text>
</g>
<!-- 34&#45;&gt;35 -->
<g id="edge35" class="edge">
<title>34&#45;&gt;35</title>
<path fill="none" stroke="#000000" d="M4335.0374,-239.1699C4296.5524,-226.9464 4255.0711,-213.7712 4216.8597,-201.6345"/>
<polygon fill="#000000" stroke="#000000" points="4217.8095,-198.264 4207.2192,-198.5725 4215.6904,-204.9355 4217.8095,-198.264"/>
</g>
<!-- 38 -->
<g id="node39" class="node">
<title>38</title>
<path fill="#f9e1fb" stroke="#000000" d="M4605.4899,-203.2C4605.4899,-203.2 4354.4307,-203.2 4354.4307,-203.2 4348.4307,-203.2 4342.4307,-197.2 4342.4307,-191.2 4342.4307,-191.2 4342.4307,-123.2 4342.4307,-123.2 4342.4307,-117.2 4348.4307,-111.2 4354.4307,-111.2 4354.4307,-111.2 4605.4899,-111.2 4605.4899,-111.2 4611.4899,-111.2 4617.4899,-117.2 4617.4899,-123.2 4617.4899,-123.2 4617.4899,-191.2 4617.4899,-191.2 4617.4899,-197.2 4611.4899,-203.2 4605.4899,-203.2"/>
<text text-anchor="middle" x="4479.9603" y="-186.6" font-family="Helvetica,sans-Serif" font-size="14.00" fill="#000000">Publisher &lt;= 360.0</text>
<text text-anchor="middle" x="4479.9603" y="-169.8" font-family="Helvetica,sans-Serif" font-size="14.00" fill="#000000">entropy = 2.255</text>
<text text-anchor="middle" x="4479.9603" y="-153" font-family="Helvetica,sans-Serif" font-size="14.00" fill="#000000">samples = 1556</text>
<text text-anchor="middle" x="4479.9603" y="-136.2" font-family="Helvetica,sans-Serif" font-size="14.00" fill="#000000">value = [149, 242, 8, 7, 401, 159, 574, 16]</text>
<text text-anchor="middle" x="4479.9603" y="-119.4" font-family="Helvetica,sans-Serif" font-size="14.00" fill="#000000">class = Poor</text>
</g>
<!-- 34&#45;&gt;38 -->
<g id="edge38" class="edge">
<title>34&#45;&gt;38</title>
<path fill="none" stroke="#000000" d="M4479.9603,-238.9891C4479.9603,-230.7417 4479.9603,-222.0661 4479.9603,-213.5724"/>
<polygon fill="#000000" stroke="#000000" points="4483.4604,-213.3431 4479.9603,-203.3431 4476.4604,-213.3431 4483.4604,-213.3431"/>
</g>
<!-- 36 -->
<g id="node37" class="node">
<title>36</title>
<path fill="#f9e1fb" stroke="#000000" d="M3925.1418,-75.3003C3925.1418,-75.3003 3696.7788,-75.3003 3696.7788,-75.3003 3690.7788,-75.3003 3684.7788,-69.3003 3684.7788,-63.3003 3684.7788,-63.3003 3684.7788,-11.8997 3684.7788,-11.8997 3684.7788,-5.8997 3690.7788,.1003 3696.7788,.1003 3696.7788,.1003 3925.1418,.1003 3925.1418,.1003 3931.1418,.1003 3937.1418,-5.8997 3937.1418,-11.8997 3937.1418,-11.8997 3937.1418,-63.3003 3937.1418,-63.3003 3937.1418,-69.3003 3931.1418,-75.3003 3925.1418,-75.3003"/>
<text text-anchor="middle" x="3810.9603" y="-58.6" font-family="Helvetica,sans-Serif" font-size="14.00" fill="#000000">entropy = 1.99</text>
<text text-anchor="middle" x="3810.9603" y="-41.8" font-family="Helvetica,sans-Serif" font-size="14.00" fill="#000000">samples = 1066</text>
<text text-anchor="middle" x="3810.9603" y="-25" font-family="Helvetica,sans-Serif" font-size="14.00" fill="#000000">value = [96, 171, 0, 0, 319, 46, 433, 1]</text>
<text text-anchor="middle" x="3810.9603" y="-8.2" font-family="Helvetica,sans-Serif" font-size="14.00" fill="#000000">class = Poor</text>
</g>
<!-- 35&#45;&gt;36 -->
<g id="edge36" class="edge">
<title>35&#45;&gt;36</title>
<path fill="none" stroke="#000000" d="M3974.4982,-111.1306C3951.3446,-100.7202 3926.8856,-89.7228 3904.1386,-79.4952"/>
<polygon fill="#000000" stroke="#000000" points="3905.3977,-76.2239 3894.8419,-75.3152 3902.5272,-82.6082 3905.3977,-76.2239"/>
</g>
<!-- 37 -->
<g id="node38" class="node">
<title>37</title>
<path fill="#f4fafe" stroke="#000000" d="M4187.3594,-75.3003C4187.3594,-75.3003 3966.5612,-75.3003 3966.5612,-75.3003 3960.5612,-75.3003 3954.5612,-69.3003 3954.5612,-63.3003 3954.5612,-63.3003 3954.5612,-11.8997 3954.5612,-11.8997 3954.5612,-5.8997 3960.5612,.1003 3966.5612,.1003 3966.5612,.1003 4187.3594,.1003 4187.3594,.1003 4193.3594,.1003 4199.3594,-5.8997 4199.3594,-11.8997 4199.3594,-11.8997 4199.3594,-63.3003 4199.3594,-63.3003 4199.3594,-69.3003 4193.3594,-75.3003 4187.3594,-75.3003"/>
<text text-anchor="middle" x="4076.9603" y="-58.6" font-family="Helvetica,sans-Serif" font-size="14.00" fill="#000000">entropy = 1.681</text>
<text text-anchor="middle" x="4076.9603" y="-41.8" font-family="Helvetica,sans-Serif" font-size="14.00" fill="#000000">samples = 834</text>
<text text-anchor="middle" x="4076.9603" y="-25" font-family="Helvetica,sans-Serif" font-size="14.00" fill="#000000">value = [31, 89, 0, 0, 363, 16, 335, 0]</text>
<text text-anchor="middle" x="4076.9603" y="-8.2" font-family="Helvetica,sans-Serif" font-size="14.00" fill="#000000">class = Extremely Poor</text>
</g>
<!-- 35&#45;&gt;37 -->
<g id="edge37" class="edge">
<title>35&#45;&gt;37</title>
<path fill="none" stroke="#000000" d="M4076.9603,-110.9595C4076.9603,-102.5477 4076.9603,-93.7581 4076.9603,-85.3049"/>
<polygon fill="#000000" stroke="#000000" points="4080.4604,-85.2088 4076.9603,-75.2088 4073.4604,-85.2089 4080.4604,-85.2088"/>
</g>
<!-- 39 -->
<g id="node40" class="node">
<title>39</title>
<path fill="#f0edfd" stroke="#000000" d="M4442.0768,-75.3003C4442.0768,-75.3003 4229.8438,-75.3003 4229.8438,-75.3003 4223.8438,-75.3003 4217.8438,-69.3003 4217.8438,-63.3003 4217.8438,-63.3003 4217.8438,-11.8997 4217.8438,-11.8997 4217.8438,-5.8997 4223.8438,.1003 4229.8438,.1003 4229.8438,.1003 4442.0768,.1003 4442.0768,.1003 4448.0768,.1003 4454.0768,-5.8997 4454.0768,-11.8997 4454.0768,-11.8997 4454.0768,-63.3003 4454.0768,-63.3003 4454.0768,-69.3003 4448.0768,-75.3003 4442.0768,-75.3003"/>
<text text-anchor="middle" x="4335.9603" y="-58.6" font-family="Helvetica,sans-Serif" font-size="14.00" fill="#000000">entropy = 2.578</text>
<text text-anchor="middle" x="4335.9603" y="-41.8" font-family="Helvetica,sans-Serif" font-size="14.00" fill="#000000">samples = 329</text>
<text text-anchor="middle" x="4335.9603" y="-25" font-family="Helvetica,sans-Serif" font-size="14.00" fill="#000000">value = [50, 52, 8, 7, 26, 97, 74, 15]</text>
<text text-anchor="middle" x="4335.9603" y="-8.2" font-family="Helvetica,sans-Serif" font-size="14.00" fill="#000000">class = Good</text>
</g>
<!-- 38&#45;&gt;39 -->
<g id="edge39" class="edge">
<title>38&#45;&gt;39</title>
<path fill="none" stroke="#000000" d="M4424.2861,-110.9595C4412.7114,-101.346 4400.5424,-91.239 4389.0631,-81.7048"/>
<polygon fill="#000000" stroke="#000000" points="4391.1708,-78.9056 4381.2418,-75.2088 4386.6983,-84.2905 4391.1708,-78.9056"/>
</g>
<!-- 40 -->
<g id="node41" class="node">
<title>40</title>
<path fill="#f9e2fb" stroke="#000000" d="M4712.1418,-75.3003C4712.1418,-75.3003 4483.7788,-75.3003 4483.7788,-75.3003 4477.7788,-75.3003 4471.7788,-69.3003 4471.7788,-63.3003 4471.7788,-63.3003 4471.7788,-11.8997 4471.7788,-11.8997 4471.7788,-5.8997 4477.7788,.1003 4483.7788,.1003 4483.7788,.1003 4712.1418,.1003 4712.1418,.1003 4718.1418,.1003 4724.1418,-5.8997 4724.1418,-11.8997 4724.1418,-11.8997 4724.1418,-63.3003 4724.1418,-63.3003 4724.1418,-69.3003 4718.1418,-75.3003 4712.1418,-75.3003"/>
<text text-anchor="middle" x="4597.9603" y="-58.6" font-family="Helvetica,sans-Serif" font-size="14.00" fill="#000000">entropy = 1.986</text>
<text text-anchor="middle" x="4597.9603" y="-41.8" font-family="Helvetica,sans-Serif" font-size="14.00" fill="#000000">samples = 1227</text>
<text text-anchor="middle" x="4597.9603" y="-25" font-family="Helvetica,sans-Serif" font-size="14.00" fill="#000000">value = [99, 190, 0, 0, 375, 62, 500, 1]</text>
<text text-anchor="middle" x="4597.9603" y="-8.2" font-family="Helvetica,sans-Serif" font-size="14.00" fill="#000000">class = Poor</text>
</g>
<!-- 38&#45;&gt;40 -->
<g id="edge40" class="edge">
<title>38&#45;&gt;40</title>
<path fill="none" stroke="#000000" d="M4525.5822,-110.9595C4534.7935,-101.6233 4544.464,-91.8217 4553.6301,-82.5313"/>
<polygon fill="#000000" stroke="#000000" points="4556.3228,-84.7855 4560.8546,-75.2088 4551.3398,-79.8692 4556.3228,-84.7855"/>
</g>
<!-- 42 -->
<g id="node43" class="node">
<title>42</title>
<path fill="#6ab5eb" stroke="#000000" d="M5061.0768,-203.2C5061.0768,-203.2 4848.8438,-203.2 4848.8438,-203.2 4842.8438,-203.2 4836.8438,-197.2 4836.8438,-191.2 4836.8438,-191.2 4836.8438,-123.2 4836.8438,-123.2 4836.8438,-117.2 4842.8438,-111.2 4848.8438,-111.2 4848.8438,-111.2 5061.0768,-111.2 5061.0768,-111.2 5067.0768,-111.2 5073.0768,-117.2 5073.0768,-123.2 5073.0768,-123.2 5073.0768,-191.2 5073.0768,-191.2 5073.0768,-197.2 5067.0768,-203.2 5061.0768,-203.2"/>
<text text-anchor="middle" x="4954.9603" y="-186.6" font-family="Helvetica,sans-Serif" font-size="14.00" fill="#000000">Genre &lt;= 6.5</text>
<text text-anchor="middle" x="4954.9603" y="-169.8" font-family="Helvetica,sans-Serif" font-size="14.00" fill="#000000">entropy = 1.18</text>
<text text-anchor="middle" x="4954.9603" y="-153" font-family="Helvetica,sans-Serif" font-size="14.00" fill="#000000">samples = 385</text>
<text text-anchor="middle" x="4954.9603" y="-136.2" font-family="Helvetica,sans-Serif" font-size="14.00" fill="#000000">value = [11, 16, 0, 0, 300, 14, 42, 2]</text>
<text text-anchor="middle" x="4954.9603" y="-119.4" font-family="Helvetica,sans-Serif" font-size="14.00" fill="#000000">class = Extremely Poor</text>
</g>
<!-- 41&#45;&gt;42 -->
<g id="edge42" class="edge">
<title>41&#45;&gt;42</title>
<path fill="none" stroke="#000000" d="M4954.9603,-238.9891C4954.9603,-230.7417 4954.9603,-222.0661 4954.9603,-213.5724"/>
<polygon fill="#000000" stroke="#000000" points="4958.4604,-213.3431 4954.9603,-203.3431 4951.4604,-213.3431 4958.4604,-213.3431"/>
</g>
<!-- 45 -->
<g id="node46" class="node">
<title>45</title>
<path fill="#d1e8f9" stroke="#000000" d="M5433.3594,-203.2C5433.3594,-203.2 5212.5612,-203.2 5212.5612,-203.2 5206.5612,-203.2 5200.5612,-197.2 5200.5612,-191.2 5200.5612,-191.2 5200.5612,-123.2 5200.5612,-123.2 5200.5612,-117.2 5206.5612,-111.2 5212.5612,-111.2 5212.5612,-111.2 5433.3594,-111.2 5433.3594,-111.2 5439.3594,-111.2 5445.3594,-117.2 5445.3594,-123.2 5445.3594,-123.2 5445.3594,-191.2 5445.3594,-191.2 5445.3594,-197.2 5439.3594,-203.2 5433.3594,-203.2"/>
<text text-anchor="middle" x="5322.9603" y="-186.6" font-family="Helvetica,sans-Serif" font-size="14.00" fill="#000000">Genre &lt;= 6.5</text>
<text text-anchor="middle" x="5322.9603" y="-169.8" font-family="Helvetica,sans-Serif" font-size="14.00" fill="#000000">entropy = 1.844</text>
<text text-anchor="middle" x="5322.9603" y="-153" font-family="Helvetica,sans-Serif" font-size="14.00" fill="#000000">samples = 407</text>
<text text-anchor="middle" x="5322.9603" y="-136.2" font-family="Helvetica,sans-Serif" font-size="14.00" fill="#000000">value = [31, 38, 0, 0, 192, 19, 127, 0]</text>
<text text-anchor="middle" x="5322.9603" y="-119.4" font-family="Helvetica,sans-Serif" font-size="14.00" fill="#000000">class = Extremely Poor</text>
</g>
<!-- 41&#45;&gt;45 -->
<g id="edge45" class="edge">
<title>41&#45;&gt;45</title>
<path fill="none" stroke="#000000" d="M5077.2433,-242.6668C5113.6266,-230.0117 5153.6512,-216.0901 5190.6428,-203.2235"/>
<polygon fill="#000000" stroke="#000000" points="5192.1872,-206.3921 5200.4823,-199.801 5189.8875,-199.7806 5192.1872,-206.3921"/>
</g>
<!-- 43 -->
<g id="node44" class="node">
<title>43</title>
<path fill="#52a9e8" stroke="#000000" d="M4935.9467,-75.3003C4935.9467,-75.3003 4753.9739,-75.3003 4753.9739,-75.3003 4747.9739,-75.3003 4741.9739,-69.3003 4741.9739,-63.3003 4741.9739,-63.3003 4741.9739,-11.8997 4741.9739,-11.8997 4741.9739,-5.8997 4747.9739,.1003 4753.9739,.1003 4753.9739,.1003 4935.9467,.1003 4935.9467,.1003 4941.9467,.1003 4947.9467,-5.8997 4947.9467,-11.8997 4947.9467,-11.8997 4947.9467,-63.3003 4947.9467,-63.3003 4947.9467,-69.3003 4941.9467,-75.3003 4935.9467,-75.3003"/>
<text text-anchor="middle" x="4844.9603" y="-58.6" font-family="Helvetica,sans-Serif" font-size="14.00" fill="#000000">entropy = 0.676</text>
<text text-anchor="middle" x="4844.9603" y="-41.8" font-family="Helvetica,sans-Serif" font-size="14.00" fill="#000000">samples = 121</text>
<text text-anchor="middle" x="4844.9603" y="-25" font-family="Helvetica,sans-Serif" font-size="14.00" fill="#000000">value = [4, 2, 0, 0, 107, 0, 8, 0]</text>
<text text-anchor="middle" x="4844.9603" y="-8.2" font-family="Helvetica,sans-Serif" font-size="14.00" fill="#000000">class = Extremely Poor</text>
</g>
<!-- 42&#45;&gt;43 -->
<g id="edge43" class="edge">
<title>42&#45;&gt;43</title>
<path fill="none" stroke="#000000" d="M4912.4314,-110.9595C4903.9297,-101.7158 4895.0082,-92.0157 4886.539,-82.8074"/>
<polygon fill="#000000" stroke="#000000" points="4888.896,-80.1998 4879.5504,-75.2088 4883.7438,-84.9385 4888.896,-80.1998"/>
</g>
<!-- 44 -->
<g id="node45" class="node">
<title>44</title>
<path fill="#76bbed" stroke="#000000" d="M5182.294,-75.3003C5182.294,-75.3003 4977.6266,-75.3003 4977.6266,-75.3003 4971.6266,-75.3003 4965.6266,-69.3003 4965.6266,-63.3003 4965.6266,-63.3003 4965.6266,-11.8997 4965.6266,-11.8997 4965.6266,-5.8997 4971.6266,.1003 4977.6266,.1003 4977.6266,.1003 5182.294,.1003 5182.294,.1003 5188.294,.1003 5194.294,-5.8997 5194.294,-11.8997 5194.294,-11.8997 5194.294,-63.3003 5194.294,-63.3003 5194.294,-69.3003 5188.294,-75.3003 5182.294,-75.3003"/>
<text text-anchor="middle" x="5079.9603" y="-58.6" font-family="Helvetica,sans-Serif" font-size="14.00" fill="#000000">entropy = 1.353</text>
<text text-anchor="middle" x="5079.9603" y="-41.8" font-family="Helvetica,sans-Serif" font-size="14.00" fill="#000000">samples = 264</text>
<text text-anchor="middle" x="5079.9603" y="-25" font-family="Helvetica,sans-Serif" font-size="14.00" fill="#000000">value = [7, 14, 0, 0, 193, 14, 34, 2]</text>
<text text-anchor="middle" x="5079.9603" y="-8.2" font-family="Helvetica,sans-Serif" font-size="14.00" fill="#000000">class = Extremely Poor</text>
</g>
<!-- 42&#45;&gt;44 -->
<g id="edge44" class="edge">
<title>42&#45;&gt;44</title>
<path fill="none" stroke="#000000" d="M5003.2886,-110.9595C5013.1429,-101.5309 5023.4934,-91.6276 5033.2886,-82.2555"/>
<polygon fill="#000000" stroke="#000000" points="5035.8476,-84.651 5040.6534,-75.2088 5031.0083,-79.5932 5035.8476,-84.651"/>
</g>
<!-- 46 -->
<g id="node47" class="node">
<title>46</title>
<path fill="#baddf6" stroke="#000000" d="M5421.5113,-75.3003C5421.5113,-75.3003 5224.4093,-75.3003 5224.4093,-75.3003 5218.4093,-75.3003 5212.4093,-69.3003 5212.4093,-63.3003 5212.4093,-63.3003 5212.4093,-11.8997 5212.4093,-11.8997 5212.4093,-5.8997 5218.4093,.1003 5224.4093,.1003 5224.4093,.1003 5421.5113,.1003 5421.5113,.1003 5427.5113,.1003 5433.5113,-5.8997 5433.5113,-11.8997 5433.5113,-11.8997 5433.5113,-63.3003 5433.5113,-63.3003 5433.5113,-69.3003 5427.5113,-75.3003 5421.5113,-75.3003"/>
<text text-anchor="middle" x="5322.9603" y="-58.6" font-family="Helvetica,sans-Serif" font-size="14.00" fill="#000000">entropy = 1.572</text>
<text text-anchor="middle" x="5322.9603" y="-41.8" font-family="Helvetica,sans-Serif" font-size="14.00" fill="#000000">samples = 176</text>
<text text-anchor="middle" x="5322.9603" y="-25" font-family="Helvetica,sans-Serif" font-size="14.00" fill="#000000">value = [11, 11, 0, 0, 97, 2, 55, 0]</text>
<text text-anchor="middle" x="5322.9603" y="-8.2" font-family="Helvetica,sans-Serif" font-size="14.00" fill="#000000">class = Extremely Poor</text>
</g>
<!-- 45&#45;&gt;46 -->
<g id="edge46" class="edge">
<title>45&#45;&gt;46</title>
<path fill="none" stroke="#000000" d="M5322.9603,-110.9595C5322.9603,-102.5477 5322.9603,-93.7581 5322.9603,-85.3049"/>
<polygon fill="#000000" stroke="#000000" points="5326.4604,-85.2088 5322.9603,-75.2088 5319.4604,-85.2089 5326.4604,-85.2088"/>
</g>
<!-- 47 -->
<g id="node48" class="node">
<title>47</title>
<path fill="#e2f1fb" stroke="#000000" d="M5668.294,-75.3003C5668.294,-75.3003 5463.6266,-75.3003 5463.6266,-75.3003 5457.6266,-75.3003 5451.6266,-69.3003 5451.6266,-63.3003 5451.6266,-63.3003 5451.6266,-11.8997 5451.6266,-11.8997 5451.6266,-5.8997 5457.6266,.1003 5463.6266,.1003 5463.6266,.1003 5668.294,.1003 5668.294,.1003 5674.294,.1003 5680.294,-5.8997 5680.294,-11.8997 5680.294,-11.8997 5680.294,-63.3003 5680.294,-63.3003 5680.294,-69.3003 5674.294,-75.3003 5668.294,-75.3003"/>
<text text-anchor="middle" x="5565.9603" y="-58.6" font-family="Helvetica,sans-Serif" font-size="14.00" fill="#000000">entropy = 1.996</text>
<text text-anchor="middle" x="5565.9603" y="-41.8" font-family="Helvetica,sans-Serif" font-size="14.00" fill="#000000">samples = 231</text>
<text text-anchor="middle" x="5565.9603" y="-25" font-family="Helvetica,sans-Serif" font-size="14.00" fill="#000000">value = [20, 27, 0, 0, 95, 17, 72, 0]</text>
<text text-anchor="middle" x="5565.9603" y="-8.2" font-family="Helvetica,sans-Serif" font-size="14.00" fill="#000000">class = Extremely Poor</text>
</g>
<!-- 45&#45;&gt;47 -->
<g id="edge47" class="edge">
<title>45&#45;&gt;47</title>
<path fill="none" stroke="#000000" d="M5416.5629,-111.1306C5437.5265,-100.8127 5459.6614,-89.9183 5480.2842,-79.7681"/>
<polygon fill="#000000" stroke="#000000" points="5481.905,-82.8714 5489.3316,-75.3152 5478.8138,-76.5909 5481.905,-82.8714"/>
</g>
<!-- 49 -->
<g id="node50" class="node">
<title>49</title>
<path fill="#f9e0fb" stroke="#000000" d="M6401.4028,-331.2C6401.4028,-331.2 6110.5178,-331.2 6110.5178,-331.2 6104.5178,-331.2 6098.5178,-325.2 6098.5178,-319.2 6098.5178,-319.2 6098.5178,-251.2 6098.5178,-251.2 6098.5178,-245.2 6104.5178,-239.2 6110.5178,-239.2 6110.5178,-239.2 6401.4028,-239.2 6401.4028,-239.2 6407.4028,-239.2 6413.4028,-245.2 6413.4028,-251.2 6413.4028,-251.2 6413.4028,-319.2 6413.4028,-319.2 6413.4028,-325.2 6407.4028,-331.2 6401.4028,-331.2"/>
<text text-anchor="middle" x="6255.9603" y="-314.6" font-family="Helvetica,sans-Serif" font-size="14.00" fill="#000000">Platform &lt;= 18.5</text>
<text text-anchor="middle" x="6255.9603" y="-297.8" font-family="Helvetica,sans-Serif" font-size="14.00" fill="#000000">entropy = 2.292</text>
<text text-anchor="middle" x="6255.9603" y="-281" font-family="Helvetica,sans-Serif" font-size="14.00" fill="#000000">samples = 7217</text>
<text text-anchor="middle" x="6255.9603" y="-264.2" font-family="Helvetica,sans-Serif" font-size="14.00" fill="#000000">value = [945, 1217, 12, 15, 1604, 893, 2472, 59]</text>
<text text-anchor="middle" x="6255.9603" y="-247.4" font-family="Helvetica,sans-Serif" font-size="14.00" fill="#000000">class = Poor</text>
</g>
<!-- 48&#45;&gt;49 -->
<g id="edge49" class="edge">
<title>48&#45;&gt;49</title>
<path fill="none" stroke="#000000" d="M6255.9603,-366.9891C6255.9603,-358.7417 6255.9603,-350.0661 6255.9603,-341.5724"/>
<polygon fill="#000000" stroke="#000000" points="6259.4604,-341.3431 6255.9603,-331.3431 6252.4604,-341.3431 6259.4604,-341.3431"/>
</g>
<!-- 56 -->
<g id="node57" class="node">
<title>56</title>
<path fill="#c9e4f8" stroke="#000000" d="M7195.3594,-331.2C7195.3594,-331.2 6974.5612,-331.2 6974.5612,-331.2 6968.5612,-331.2 6962.5612,-325.2 6962.5612,-319.2 6962.5612,-319.2 6962.5612,-251.2 6962.5612,-251.2 6962.5612,-245.2 6968.5612,-239.2 6974.5612,-239.2 6974.5612,-239.2 7195.3594,-239.2 7195.3594,-239.2 7201.3594,-239.2 7207.3594,-245.2 7207.3594,-251.2 7207.3594,-251.2 7207.3594,-319.2 7207.3594,-319.2 7207.3594,-325.2 7201.3594,-331.2 7195.3594,-331.2"/>
<text text-anchor="middle" x="7084.9603" y="-314.6" font-family="Helvetica,sans-Serif" font-size="14.00" fill="#000000">Genre &lt;= 7.5</text>
<text text-anchor="middle" x="7084.9603" y="-297.8" font-family="Helvetica,sans-Serif" font-size="14.00" fill="#000000">entropy = 2.008</text>
<text text-anchor="middle" x="7084.9603" y="-281" font-family="Helvetica,sans-Serif" font-size="14.00" fill="#000000">samples = 683</text>
<text text-anchor="middle" x="7084.9603" y="-264.2" font-family="Helvetica,sans-Serif" font-size="14.00" fill="#000000">value = [55, 73, 0, 1, 316, 55, 179, 4]</text>
<text text-anchor="middle" x="7084.9603" y="-247.4" font-family="Helvetica,sans-Serif" font-size="14.00" fill="#000000">class = Extremely Poor</text>
</g>
<!-- 48&#45;&gt;56 -->
<g id="edge56" class="edge">
<title>48&#45;&gt;56</title>
<path fill="none" stroke="#000000" d="M6417.275,-388.2925C6573.3671,-364.1915 6807.1063,-328.1015 6952.5908,-305.6382"/>
<polygon fill="#000000" stroke="#000000" points="6953.1286,-309.0968 6962.4774,-304.1117 6952.0604,-302.1787 6953.1286,-309.0968"/>
</g>
<!-- 50 -->
<g id="node51" class="node">
<title>50</title>
<path fill="#f9e2fb" stroke="#000000" d="M6228.4899,-203.2C6228.4899,-203.2 5977.4307,-203.2 5977.4307,-203.2 5971.4307,-203.2 5965.4307,-197.2 5965.4307,-191.2 5965.4307,-191.2 5965.4307,-123.2 5965.4307,-123.2 5965.4307,-117.2 5971.4307,-111.2 5977.4307,-111.2 5977.4307,-111.2 6228.4899,-111.2 6228.4899,-111.2 6234.4899,-111.2 6240.4899,-117.2 6240.4899,-123.2 6240.4899,-123.2 6240.4899,-191.2 6240.4899,-191.2 6240.4899,-197.2 6234.4899,-203.2 6228.4899,-203.2"/>
<text text-anchor="middle" x="6102.9603" y="-186.6" font-family="Helvetica,sans-Serif" font-size="14.00" fill="#000000">Year &lt;= 2005.5</text>
<text text-anchor="middle" x="6102.9603" y="-169.8" font-family="Helvetica,sans-Serif" font-size="14.00" fill="#000000">entropy = 2.354</text>
<text text-anchor="middle" x="6102.9603" y="-153" font-family="Helvetica,sans-Serif" font-size="14.00" fill="#000000">samples = 2849</text>
<text text-anchor="middle" x="6102.9603" y="-136.2" font-family="Helvetica,sans-Serif" font-size="14.00" fill="#000000">value = [434, 529, 3, 5, 524, 462, 864, 28]</text>
<text text-anchor="middle" x="6102.9603" y="-119.4" font-family="Helvetica,sans-Serif" font-size="14.00" fill="#000000">class = Poor</text>
</g>
<!-- 49&#45;&gt;50 -->
<g id="edge50" class="edge">
<title>49&#45;&gt;50</title>
<path fill="none" stroke="#000000" d="M6200.7238,-238.9891C6189.4573,-229.5635 6177.5223,-219.5787 6166.0072,-209.9452"/>
<polygon fill="#000000" stroke="#000000" points="6168.0315,-207.0753 6158.1157,-203.3431 6163.5398,-212.4442 6168.0315,-207.0753"/>
</g>
<!-- 53 -->
<g id="node54" class="node">
<title>53</title>
<path fill="#f9dffb" stroke="#000000" d="M6545.3373,-203.2C6545.3373,-203.2 6270.5833,-203.2 6270.5833,-203.2 6264.5833,-203.2 6258.5833,-197.2 6258.5833,-191.2 6258.5833,-191.2 6258.5833,-123.2 6258.5833,-123.2 6258.5833,-117.2 6264.5833,-111.2 6270.5833,-111.2 6270.5833,-111.2 6545.3373,-111.2 6545.3373,-111.2 6551.3373,-111.2 6557.3373,-117.2 6557.3373,-123.2 6557.3373,-123.2 6557.3373,-191.2 6557.3373,-191.2 6557.3373,-197.2 6551.3373,-203.2 6545.3373,-203.2"/>
<text text-anchor="middle" x="6407.9603" y="-186.6" font-family="Helvetica,sans-Serif" font-size="14.00" fill="#000000">Platform &lt;= 23.0</text>
<text text-anchor="middle" x="6407.9603" y="-169.8" font-family="Helvetica,sans-Serif" font-size="14.00" fill="#000000">entropy = 2.23</text>
<text text-anchor="middle" x="6407.9603" y="-153" font-family="Helvetica,sans-Serif" font-size="14.00" fill="#000000">samples = 4368</text>
<text text-anchor="middle" x="6407.9603" y="-136.2" font-family="Helvetica,sans-Serif" font-size="14.00" fill="#000000">value = [511, 688, 9, 10, 1080, 431, 1608, 31]</text>
<text text-anchor="middle" x="6407.9603" y="-119.4" font-family="Helvetica,sans-Serif" font-size="14.00" fill="#000000">class = Poor</text>
</g>
<!-- 49&#45;&gt;53 -->
<g id="edge53" class="edge">
<title>49&#45;&gt;53</title>
<path fill="none" stroke="#000000" d="M6310.8358,-238.9891C6322.0287,-229.5635 6333.8856,-219.5787 6345.3254,-209.9452"/>
<polygon fill="#000000" stroke="#000000" points="6347.7707,-212.4617 6353.1654,-203.3431 6343.2617,-207.1073 6347.7707,-212.4617"/>
</g>
<!-- 51 -->
<g id="node52" class="node">
<title>51</title>
<path fill="#f9e3fb" stroke="#000000" d="M5945.9243,-75.3003C5945.9243,-75.3003 5709.9963,-75.3003 5709.9963,-75.3003 5703.9963,-75.3003 5697.9963,-69.3003 5697.9963,-63.3003 5697.9963,-63.3003 5697.9963,-11.8997 5697.9963,-11.8997 5697.9963,-5.8997 5703.9963,.1003 5709.9963,.1003 5709.9963,.1003 5945.9243,.1003 5945.9243,.1003 5951.9243,.1003 5957.9243,-5.8997 5957.9243,-11.8997 5957.9243,-11.8997 5957.9243,-63.3003 5957.9243,-63.3003 5957.9243,-69.3003 5951.9243,-75.3003 5945.9243,-75.3003"/>
<text text-anchor="middle" x="5827.9603" y="-58.6" font-family="Helvetica,sans-Serif" font-size="14.00" fill="#000000">entropy = 2.283</text>
<text text-anchor="middle" x="5827.9603" y="-41.8" font-family="Helvetica,sans-Serif" font-size="14.00" fill="#000000">samples = 969</text>
<text text-anchor="middle" x="5827.9603" y="-25" font-family="Helvetica,sans-Serif" font-size="14.00" fill="#000000">value = [150, 211, 2, 1, 97, 182, 320, 6]</text>
<text text-anchor="middle" x="5827.9603" y="-8.2" font-family="Helvetica,sans-Serif" font-size="14.00" fill="#000000">class = Poor</text>
</g>
<!-- 50&#45;&gt;51 -->
<g id="edge51" class="edge">
<title>50&#45;&gt;51</title>
<path fill="none" stroke="#000000" d="M5997.0315,-111.1306C5972.988,-100.6739 5947.5831,-89.6251 5923.9778,-79.3589"/>
<polygon fill="#000000" stroke="#000000" points="5925.2462,-76.0939 5914.68,-75.3152 5922.4544,-82.5131 5925.2462,-76.0939"/>
</g>
<!-- 52 -->
<g id="node53" class="node">
<title>52</title>
<path fill="#fceffd" stroke="#000000" d="M6239.4899,-75.3003C6239.4899,-75.3003 5988.4307,-75.3003 5988.4307,-75.3003 5982.4307,-75.3003 5976.4307,-69.3003 5976.4307,-63.3003 5976.4307,-63.3003 5976.4307,-11.8997 5976.4307,-11.8997 5976.4307,-5.8997 5982.4307,.1003 5988.4307,.1003 5988.4307,.1003 6239.4899,.1003 6239.4899,.1003 6245.4899,.1003 6251.4899,-5.8997 6251.4899,-11.8997 6251.4899,-11.8997 6251.4899,-63.3003 6251.4899,-63.3003 6251.4899,-69.3003 6245.4899,-75.3003 6239.4899,-75.3003"/>
<text text-anchor="middle" x="6113.9603" y="-58.6" font-family="Helvetica,sans-Serif" font-size="14.00" fill="#000000">entropy = 2.358</text>
<text text-anchor="middle" x="6113.9603" y="-41.8" font-family="Helvetica,sans-Serif" font-size="14.00" fill="#000000">samples = 1880</text>
<text text-anchor="middle" x="6113.9603" y="-25" font-family="Helvetica,sans-Serif" font-size="14.00" fill="#000000">value = [284, 318, 1, 4, 427, 280, 544, 22]</text>
<text text-anchor="middle" x="6113.9603" y="-8.2" font-family="Helvetica,sans-Serif" font-size="14.00" fill="#000000">class = Poor</text>
</g>
<!-- 50&#45;&gt;52 -->
<g id="edge52" class="edge">
<title>50&#45;&gt;52</title>
<path fill="none" stroke="#000000" d="M6107.2132,-110.9595C6107.9868,-102.5477 6108.7953,-93.7581 6109.5727,-85.3049"/>
<polygon fill="#000000" stroke="#000000" points="6113.0706,-85.4874 6110.5013,-75.2088 6106.1,-84.8462 6113.0706,-85.4874"/>
</g>
<!-- 54 -->
<g id="node55" class="node">
<title>54</title>
<path fill="#eaf4fc" stroke="#000000" d="M6510.1418,-75.3003C6510.1418,-75.3003 6281.7788,-75.3003 6281.7788,-75.3003 6275.7788,-75.3003 6269.7788,-69.3003 6269.7788,-63.3003 6269.7788,-63.3003 6269.7788,-11.8997 6269.7788,-11.8997 6269.7788,-5.8997 6275.7788,.1003 6281.7788,.1003 6281.7788,.1003 6510.1418,.1003 6510.1418,.1003 6516.1418,.1003 6522.1418,-5.8997 6522.1418,-11.8997 6522.1418,-11.8997 6522.1418,-63.3003 6522.1418,-63.3003 6522.1418,-69.3003 6516.1418,-75.3003 6510.1418,-75.3003"/>
<text text-anchor="middle" x="6395.9603" y="-58.6" font-family="Helvetica,sans-Serif" font-size="14.00" fill="#000000">entropy = 1.891</text>
<text text-anchor="middle" x="6395.9603" y="-41.8" font-family="Helvetica,sans-Serif" font-size="14.00" fill="#000000">samples = 1265</text>
<text text-anchor="middle" x="6395.9603" y="-25" font-family="Helvetica,sans-Serif" font-size="14.00" fill="#000000">value = [90, 146, 0, 0, 531, 55, 442, 1]</text>
<text text-anchor="middle" x="6395.9603" y="-8.2" font-family="Helvetica,sans-Serif" font-size="14.00" fill="#000000">class = Extremely Poor</text>
</g>
<!-- 53&#45;&gt;54 -->
<g id="edge54" class="edge">
<title>53&#45;&gt;54</title>
<path fill="none" stroke="#000000" d="M6403.3208,-110.9595C6402.4768,-102.5477 6401.5949,-93.7581 6400.7467,-85.3049"/>
<polygon fill="#000000" stroke="#000000" points="6404.2147,-84.8094 6399.7338,-75.2088 6397.2497,-85.5083 6404.2147,-84.8094"/>
</g>
<!-- 55 -->
<g id="node56" class="node">
<title>55</title>
<path fill="#f5cff9" stroke="#000000" d="M6819.5547,-75.3003C6819.5547,-75.3003 6552.3659,-75.3003 6552.3659,-75.3003 6546.3659,-75.3003 6540.3659,-69.3003 6540.3659,-63.3003 6540.3659,-63.3003 6540.3659,-11.8997 6540.3659,-11.8997 6540.3659,-5.8997 6546.3659,.1003 6552.3659,.1003 6552.3659,.1003 6819.5547,.1003 6819.5547,.1003 6825.5547,.1003 6831.5547,-5.8997 6831.5547,-11.8997 6831.5547,-11.8997 6831.5547,-63.3003 6831.5547,-63.3003 6831.5547,-69.3003 6825.5547,-75.3003 6819.5547,-75.3003"/>
<text text-anchor="middle" x="6685.9603" y="-58.6" font-family="Helvetica,sans-Serif" font-size="14.00" fill="#000000">entropy = 2.288</text>
<text text-anchor="middle" x="6685.9603" y="-41.8" font-family="Helvetica,sans-Serif" font-size="14.00" fill="#000000">samples = 3103</text>
<text text-anchor="middle" x="6685.9603" y="-25" font-family="Helvetica,sans-Serif" font-size="14.00" fill="#000000">value = [421, 542, 9, 10, 549, 376, 1166, 30]</text>
<text text-anchor="middle" x="6685.9603" y="-8.2" font-family="Helvetica,sans-Serif" font-size="14.00" fill="#000000">class = Poor</text>
</g>
<!-- 53&#45;&gt;55 -->
<g id="edge55" class="edge">
<title>53&#45;&gt;55</title>
<path fill="none" stroke="#000000" d="M6515.0447,-111.1306C6539.3504,-100.6739 6565.0325,-89.6251 6588.8953,-79.3589"/>
<polygon fill="#000000" stroke="#000000" points="6590.4917,-82.4823 6598.2945,-75.3152 6587.7253,-76.0521 6590.4917,-82.4823"/>
</g>
<!-- 57 -->
<g id="node58" class="node">
<title>57</title>
<path fill="#c0e0f7" stroke="#000000" d="M7195.3594,-203.2C7195.3594,-203.2 6974.5612,-203.2 6974.5612,-203.2 6968.5612,-203.2 6962.5612,-197.2 6962.5612,-191.2 6962.5612,-191.2 6962.5612,-123.2 6962.5612,-123.2 6962.5612,-117.2 6968.5612,-111.2 6974.5612,-111.2 6974.5612,-111.2 7195.3594,-111.2 7195.3594,-111.2 7201.3594,-111.2 7207.3594,-117.2 7207.3594,-123.2 7207.3594,-123.2 7207.3594,-191.2 7207.3594,-191.2 7207.3594,-197.2 7201.3594,-203.2 7195.3594,-203.2"/>
<text text-anchor="middle" x="7084.9603" y="-186.6" font-family="Helvetica,sans-Serif" font-size="14.00" fill="#000000">Publisher &lt;= 520.5</text>
<text text-anchor="middle" x="7084.9603" y="-169.8" font-family="Helvetica,sans-Serif" font-size="14.00" fill="#000000">entropy = 1.851</text>
<text text-anchor="middle" x="7084.9603" y="-153" font-family="Helvetica,sans-Serif" font-size="14.00" fill="#000000">samples = 531</text>
<text text-anchor="middle" x="7084.9603" y="-136.2" font-family="Helvetica,sans-Serif" font-size="14.00" fill="#000000">value = [39, 51, 0, 0, 268, 28, 144, 1]</text>
<text text-anchor="middle" x="7084.9603" y="-119.4" font-family="Helvetica,sans-Serif" font-size="14.00" fill="#000000">class = Extremely Poor</text>
</g>
<!-- 56&#45;&gt;57 -->
<g id="edge57" class="edge">
<title>56&#45;&gt;57</title>
<path fill="none" stroke="#000000" d="M7084.9603,-238.9891C7084.9603,-230.7417 7084.9603,-222.0661 7084.9603,-213.5724"/>
<polygon fill="#000000" stroke="#000000" points="7088.4604,-213.3431 7084.9603,-203.3431 7081.4604,-213.3431 7088.4604,-213.3431"/>
</g>
<!-- 60 -->
<g id="node61" class="node">
<title>60</title>
<path fill="#e9f4fc" stroke="#000000" d="M7556.294,-203.2C7556.294,-203.2 7351.6266,-203.2 7351.6266,-203.2 7345.6266,-203.2 7339.6266,-197.2 7339.6266,-191.2 7339.6266,-191.2 7339.6266,-123.2 7339.6266,-123.2 7339.6266,-117.2 7345.6266,-111.2 7351.6266,-111.2 7351.6266,-111.2 7556.294,-111.2 7556.294,-111.2 7562.294,-111.2 7568.294,-117.2 7568.294,-123.2 7568.294,-123.2 7568.294,-191.2 7568.294,-191.2 7568.294,-197.2 7562.294,-203.2 7556.294,-203.2"/>
<text text-anchor="middle" x="7453.9603" y="-186.6" font-family="Helvetica,sans-Serif" font-size="14.00" fill="#000000">Genre &lt;= 8.5</text>
<text text-anchor="middle" x="7453.9603" y="-169.8" font-family="Helvetica,sans-Serif" font-size="14.00" fill="#000000">entropy = 2.361</text>
<text text-anchor="middle" x="7453.9603" y="-153" font-family="Helvetica,sans-Serif" font-size="14.00" fill="#000000">samples = 152</text>
<text text-anchor="middle" x="7453.9603" y="-136.2" font-family="Helvetica,sans-Serif" font-size="14.00" fill="#000000">value = [16, 22, 0, 1, 48, 27, 35, 3]</text>
<text text-anchor="middle" x="7453.9603" y="-119.4" font-family="Helvetica,sans-Serif" font-size="14.00" fill="#000000">class = Extremely Poor</text>
</g>
<!-- 56&#45;&gt;60 -->
<g id="edge60" class="edge">
<title>56&#45;&gt;60</title>
<path fill="none" stroke="#000000" d="M7207.3194,-242.7556C7246.6628,-229.1081 7290.2748,-213.9798 7329.7498,-200.2866"/>
<polygon fill="#000000" stroke="#000000" points="7331.1245,-203.5144 7339.4252,-196.9303 7328.8304,-196.901 7331.1245,-203.5144"/>
</g>
<!-- 58 -->
<g id="node59" class="node">
<title>58</title>
<path fill="#b4daf5" stroke="#000000" d="M7082.3594,-75.3003C7082.3594,-75.3003 6861.5612,-75.3003 6861.5612,-75.3003 6855.5612,-75.3003 6849.5612,-69.3003 6849.5612,-63.3003 6849.5612,-63.3003 6849.5612,-11.8997 6849.5612,-11.8997 6849.5612,-5.8997 6855.5612,.1003 6861.5612,.1003 6861.5612,.1003 7082.3594,.1003 7082.3594,.1003 7088.3594,.1003 7094.3594,-5.8997 7094.3594,-11.8997 7094.3594,-11.8997 7094.3594,-63.3003 7094.3594,-63.3003 7094.3594,-69.3003 7088.3594,-75.3003 7082.3594,-75.3003"/>
<text text-anchor="middle" x="6971.9603" y="-58.6" font-family="Helvetica,sans-Serif" font-size="14.00" fill="#000000">entropy = 1.743</text>
<text text-anchor="middle" x="6971.9603" y="-41.8" font-family="Helvetica,sans-Serif" font-size="14.00" fill="#000000">samples = 464</text>
<text text-anchor="middle" x="6971.9603" y="-25" font-family="Helvetica,sans-Serif" font-size="14.00" fill="#000000">value = [27, 41, 0, 0, 252, 19, 124, 1]</text>
<text text-anchor="middle" x="6971.9603" y="-8.2" font-family="Helvetica,sans-Serif" font-size="14.00" fill="#000000">class = Extremely Poor</text>
</g>
<!-- 57&#45;&gt;58 -->
<g id="edge58" class="edge">
<title>57&#45;&gt;58</title>
<path fill="none" stroke="#000000" d="M7041.2715,-110.9595C7032.4506,-101.6233 7023.1898,-91.8217 7014.4121,-82.5313"/>
<polygon fill="#000000" stroke="#000000" points="7016.9055,-80.0739 7007.4937,-75.2088 7011.8173,-84.8813 7016.9055,-80.0739"/>
</g>
<!-- 59 -->
<g id="node60" class="node">
<title>59</title>
<path fill="#fceffd" stroke="#000000" d="M7321.5113,-75.3003C7321.5113,-75.3003 7124.4093,-75.3003 7124.4093,-75.3003 7118.4093,-75.3003 7112.4093,-69.3003 7112.4093,-63.3003 7112.4093,-63.3003 7112.4093,-11.8997 7112.4093,-11.8997 7112.4093,-5.8997 7118.4093,.1003 7124.4093,.1003 7124.4093,.1003 7321.5113,.1003 7321.5113,.1003 7327.5113,.1003 7333.5113,-5.8997 7333.5113,-11.8997 7333.5113,-11.8997 7333.5113,-63.3003 7333.5113,-63.3003 7333.5113,-69.3003 7327.5113,-75.3003 7321.5113,-75.3003"/>
<text text-anchor="middle" x="7222.9603" y="-58.6" font-family="Helvetica,sans-Serif" font-size="14.00" fill="#000000">entropy = 2.257</text>
<text text-anchor="middle" x="7222.9603" y="-41.8" font-family="Helvetica,sans-Serif" font-size="14.00" fill="#000000">samples = 67</text>
<text text-anchor="middle" x="7222.9603" y="-25" font-family="Helvetica,sans-Serif" font-size="14.00" fill="#000000">value = [12, 10, 0, 0, 16, 9, 20, 0]</text>
<text text-anchor="middle" x="7222.9603" y="-8.2" font-family="Helvetica,sans-Serif" font-size="14.00" fill="#000000">class = Poor</text>
</g>
<!-- 57&#45;&gt;59 -->
<g id="edge59" class="edge">
<title>57&#45;&gt;59</title>
<path fill="none" stroke="#000000" d="M7138.3147,-110.9595C7149.3005,-101.4385 7160.8449,-91.4333 7171.7526,-81.98"/>
<polygon fill="#000000" stroke="#000000" points="7174.3009,-84.4031 7179.5655,-75.2088 7169.7163,-79.1132 7174.3009,-84.4031"/>
</g>
<!-- 61 -->
<g id="node62" class="node">
<title>61</title>
<path fill="#e3dffb" stroke="#000000" d="M7544.9467,-75.3003C7544.9467,-75.3003 7362.9739,-75.3003 7362.9739,-75.3003 7356.9739,-75.3003 7350.9739,-69.3003 7350.9739,-63.3003 7350.9739,-63.3003 7350.9739,-11.8997 7350.9739,-11.8997 7350.9739,-5.8997 7356.9739,.1003 7362.9739,.1003 7362.9739,.1003 7544.9467,.1003 7544.9467,.1003 7550.9467,.1003 7556.9467,-5.8997 7556.9467,-11.8997 7556.9467,-11.8997 7556.9467,-63.3003 7556.9467,-63.3003 7556.9467,-69.3003 7550.9467,-75.3003 7544.9467,-75.3003"/>
<text text-anchor="middle" x="7453.9603" y="-58.6" font-family="Helvetica,sans-Serif" font-size="14.00" fill="#000000">entropy = 2.457</text>
<text text-anchor="middle" x="7453.9603" y="-41.8" font-family="Helvetica,sans-Serif" font-size="14.00" fill="#000000">samples = 53</text>
<text text-anchor="middle" x="7453.9603" y="-25" font-family="Helvetica,sans-Serif" font-size="14.00" fill="#000000">value = [5, 9, 0, 1, 10, 17, 9, 2]</text>
<text text-anchor="middle" x="7453.9603" y="-8.2" font-family="Helvetica,sans-Serif" font-size="14.00" fill="#000000">class = Good</text>
</g>
<!-- 60&#45;&gt;61 -->
<g id="edge61" class="edge">
<title>60&#45;&gt;61</title>
<path fill="none" stroke="#000000" d="M7453.9603,-110.9595C7453.9603,-102.5477 7453.9603,-93.7581 7453.9603,-85.3049"/>
<polygon fill="#000000" stroke="#000000" points="7457.4604,-85.2088 7453.9603,-75.2088 7450.4604,-85.2089 7457.4604,-85.2088"/>
</g>
<!-- 62 -->
<g id="node63" class="node">
<title>62</title>
<path fill="#deeffb" stroke="#000000" d="M7791.294,-75.3003C7791.294,-75.3003 7586.6266,-75.3003 7586.6266,-75.3003 7580.6266,-75.3003 7574.6266,-69.3003 7574.6266,-63.3003 7574.6266,-63.3003 7574.6266,-11.8997 7574.6266,-11.8997 7574.6266,-5.8997 7580.6266,.1003 7586.6266,.1003 7586.6266,.1003 7791.294,.1003 7791.294,.1003 7797.294,.1003 7803.294,-5.8997 7803.294,-11.8997 7803.294,-11.8997 7803.294,-63.3003 7803.294,-63.3003 7803.294,-69.3003 7797.294,-75.3003 7791.294,-75.3003"/>
<text text-anchor="middle" x="7688.9603" y="-58.6" font-family="Helvetica,sans-Serif" font-size="14.00" fill="#000000">entropy = 2.175</text>
<text text-anchor="middle" x="7688.9603" y="-41.8" font-family="Helvetica,sans-Serif" font-size="14.00" fill="#000000">samples = 99</text>
<text text-anchor="middle" x="7688.9603" y="-25" font-family="Helvetica,sans-Serif" font-size="14.00" fill="#000000">value = [11, 13, 0, 0, 38, 10, 26, 1]</text>
<text text-anchor="middle" x="7688.9603" y="-8.2" font-family="Helvetica,sans-Serif" font-size="14.00" fill="#000000">class = Extremely Poor</text>
</g>
<!-- 60&#45;&gt;62 -->
<g id="edge62" class="edge">
<title>60&#45;&gt;62</title>
<path fill="none" stroke="#000000" d="M7544.4813,-111.1306C7564.6639,-100.859 7585.969,-90.016 7605.8364,-79.9047"/>
<polygon fill="#000000" stroke="#000000" points="7607.5297,-82.9703 7614.8543,-75.3152 7604.3546,-76.7317 7607.5297,-82.9703"/>
</g>
</g>
</svg>
